<svg width="21" height="27" viewBox="0 0 21 27" fill="none" xmlns="http://www.w3.org/2000/svg">
<path d="M3.76385 26.5409C3.57222 26.4592 3.38799 26.3606 3.21328 26.2461C3.04927 26.1213 2.91764 25.9577 2.82979 25.7694C2.74193 25.5812 2.7005 25.374 2.70908 25.1658C2.70908 24.7517 2.70908 24.339 2.70908 23.8895C2.27442 23.8895 1.84991 23.8968 1.42829 23.8895C1.1191 23.8945 0.818236 23.7875 0.579385 23.5878C0.340534 23.388 0.179247 23.1084 0.124314 22.7988C0.106408 22.6972 0.0986417 22.594 0.101132 22.4908C0.101132 16.6721 0.101132 10.8534 0.101132 5.03464C0.0970739 4.92753 0.11567 4.82079 0.155663 4.72162C0.195657 4.62246 0.256114 4.53319 0.332949 4.45984C1.71516 3.0479 3.09593 1.63301 4.49263 0.232867C4.63186 0.0996883 4.81318 0.021313 5.00407 0.0117908C9.00196 4.61201e-08 12.9994 -0.0029477 16.9963 0.00294766C17.7917 0.00294766 18.3336 0.551216 18.3481 1.36625C18.3568 1.78777 18.3481 2.20781 18.3481 2.65144H19.5492C20.4185 2.65144 20.9618 3.20413 20.9618 4.09433C20.9618 11.0862 20.9618 18.0791 20.9618 25.073C20.9618 25.832 20.5938 26.2963 19.9056 26.5306L3.76385 26.5409ZM0.977692 5.31762C0.977692 5.41489 0.966102 5.47384 0.966102 5.5328C0.966102 11.1707 0.966102 16.8082 0.966102 22.4451C0.966102 22.8593 1.12258 23.0111 1.54565 23.0111H16.9036C17.3382 23.0111 17.4831 22.8637 17.4831 22.4215C17.4831 15.4454 17.4831 8.46918 17.4831 1.493C17.4831 1.03169 17.3469 0.903464 16.8862 0.903464H5.31123V1.21887C5.31123 2.12528 5.31123 3.03169 5.31123 3.9381C5.31123 4.77819 4.77805 5.31319 3.9551 5.32204C3.31036 5.32204 2.66561 5.32204 2.02087 5.32204L0.977692 5.31762ZM18.351 3.54901V3.92189C18.351 10.0511 18.351 16.1808 18.351 22.311C18.3596 22.5087 18.344 22.7067 18.3046 22.9005C18.151 23.5254 17.6338 23.888 16.9253 23.888H3.57115V24.9816C3.57115 25.5313 3.68996 25.6537 4.22748 25.6537H18.8914C19.129 25.6537 19.3666 25.6537 19.6042 25.6537C19.6682 25.6602 19.7328 25.6525 19.7935 25.6311C19.8543 25.6098 19.9098 25.5753 19.9562 25.5301C20.0026 25.4848 20.0388 25.4299 20.0624 25.3691C20.0859 25.3082 20.0962 25.2429 20.0925 25.1776C20.0925 25.1083 20.0925 25.0391 20.0925 24.9698V4.22255C20.0951 4.12758 20.0913 4.03253 20.0809 3.9381C20.0781 3.83658 20.0374 3.73995 19.9672 3.66773C19.897 3.5955 19.8025 3.55307 19.7028 3.54901C19.2638 3.53279 18.8247 3.54901 18.351 3.54901ZM4.44192 1.63301L1.69633 4.43331C2.46712 4.43331 3.26979 4.44215 4.07391 4.43331C4.31007 4.43331 4.43757 4.24171 4.44047 3.95873C4.44047 3.35446 4.44047 2.75019 4.44047 2.14591L4.44192 1.63301Z" fill="#C0AA9E"/>
<path d="M9.2411 8.40456H3.35873C3.27469 8.40456 3.18921 8.40456 3.10518 8.40456C3.0005 8.39462 2.90292 8.34642 2.8305 8.26889C2.75808 8.19137 2.71574 8.08977 2.71132 7.98292C2.7069 7.87607 2.7407 7.77121 2.80646 7.68777C2.87221 7.60433 2.96547 7.54796 3.06896 7.5291C3.15188 7.52197 3.23524 7.52197 3.31816 7.5291H15.1278C15.2131 7.52155 15.2989 7.52155 15.3843 7.5291C15.49 7.54653 15.5854 7.60384 15.6514 7.6896C15.7175 7.77537 15.7493 7.88329 15.7407 7.99189C15.7363 8.09643 15.694 8.19563 15.6221 8.27044C15.5502 8.34525 15.4536 8.39039 15.3509 8.39719C15.2665 8.40162 15.1818 8.40162 15.0974 8.39719L9.2411 8.40456Z" fill="#C0AA9E"/>
<path d="M9.20947 16.3707H15.0933C15.1866 16.3672 15.28 16.3697 15.3729 16.378C15.4669 16.3914 15.5538 16.4363 15.6199 16.5057C15.6859 16.575 15.7273 16.6648 15.7374 16.7608C15.7476 16.8568 15.7259 16.9535 15.6759 17.0355C15.6259 17.1176 15.5503 17.1803 15.4613 17.2137C15.3472 17.2456 15.2289 17.259 15.1107 17.2535C11.191 17.2535 7.27187 17.2535 3.35318 17.2535C3.22697 17.2591 3.1007 17.2437 2.97938 17.2078C2.88883 17.1782 2.81218 17.1157 2.76407 17.0322C2.71596 16.9488 2.69977 16.8502 2.71858 16.7553C2.72548 16.6591 2.7659 16.5686 2.83256 16.4999C2.89922 16.4313 2.98775 16.3891 3.08225 16.381C3.17366 16.3711 3.26564 16.3677 3.35753 16.3707H9.20947Z" fill="#C0AA9E"/>
<path d="M7.07485 9.73844C8.33101 9.73844 9.58717 9.73844 10.8419 9.73844C10.9748 9.72706 11.1076 9.76187 11.2186 9.83719C11.2708 9.8888 11.3118 9.95106 11.3388 10.0199C11.3657 10.0887 11.3781 10.1626 11.3751 10.2366C11.3437 10.365 11.2653 10.4764 11.1561 10.5481C11.0468 10.6198 10.9148 10.6465 10.7868 10.6227H3.3252C3.28318 10.6227 3.23972 10.6227 3.1977 10.6227C2.90793 10.611 2.70364 10.4311 2.70509 10.1806C2.70653 9.93004 2.90068 9.73844 3.20349 9.73844C4.49491 9.73844 5.78536 9.73844 7.07485 9.73844Z" fill="#C0AA9E"/>
<path d="M11.405 12.8349H7.68863C7.58727 12.8384 7.48581 12.8315 7.38582 12.8142C7.29658 12.7991 7.21539 12.7526 7.15636 12.6828C7.09733 12.6131 7.0642 12.5245 7.06272 12.4325C7.04915 12.3377 7.06928 12.2411 7.11947 12.16C7.16967 12.079 7.24664 12.0188 7.33656 11.9903C7.41687 11.9634 7.50122 11.9509 7.58576 11.9535C10.1222 11.9535 12.6597 11.9535 15.1981 11.9535C15.2823 11.9509 15.3664 11.9619 15.4473 11.9859C15.5402 12.0112 15.6208 12.07 15.6741 12.1514C15.7275 12.2328 15.7498 12.3311 15.737 12.4281C15.7386 12.5244 15.7054 12.6179 15.6437 12.691C15.5821 12.764 15.4962 12.8116 15.4024 12.8245C15.3018 12.8413 15.1999 12.8477 15.0981 12.8437L11.405 12.8349Z" fill="#C0AA9E"/>
<path d="M9.22337 15.0366C8.39318 15.0366 7.56153 15.0366 6.73133 15.0366C6.38361 15.0366 6.19091 14.8789 6.18946 14.5945C6.18801 14.31 6.38361 14.1523 6.72554 14.1523H11.7328C12.0675 14.1523 12.2732 14.3322 12.2674 14.6048C12.2616 14.8775 12.0646 15.0337 11.74 15.0352C10.9012 15.0455 10.0623 15.0366 9.22337 15.0366Z" fill="#C0AA9E"/>
<path d="M4.452 19.4668C4.04487 19.4668 3.63919 19.4668 3.23206 19.4668C2.90607 19.4668 2.71047 19.2988 2.70612 19.035C2.70178 18.7712 2.90462 18.5928 3.24075 18.584C4.04439 18.584 4.84899 18.584 5.65455 18.584C5.98344 18.584 6.17035 18.7491 6.17614 19.0261C6.18194 19.3032 5.99069 19.4683 5.64586 19.4683C5.24163 19.4668 4.84899 19.4668 4.452 19.4668Z" fill="#C0AA9E"/>
<path d="M4.22742 12.8257C3.8797 12.8257 3.53342 12.8257 3.18569 12.8257C2.88578 12.8257 2.69453 12.6371 2.70032 12.3836C2.70008 12.322 2.71248 12.2611 2.73672 12.2047C2.76097 12.1482 2.79654 12.0976 2.84114 12.056C2.88574 12.0144 2.93839 11.9827 2.99573 11.9629C3.05307 11.9432 3.11382 11.9359 3.1741 11.9414C3.8768 11.9414 4.57949 11.9326 5.28219 11.9414C5.34131 11.938 5.40049 11.9469 5.4561 11.9676C5.51171 11.9883 5.56258 12.0203 5.60559 12.0617C5.6486 12.1031 5.68284 12.153 5.7062 12.2084C5.72957 12.2637 5.74157 12.3233 5.74148 12.3836C5.74148 12.6341 5.55747 12.8066 5.2677 12.8139C4.92722 12.8346 4.57949 12.8257 4.22742 12.8257Z" fill="#C0AA9E"/>
<path d="M14.2248 9.73828C14.5725 9.73828 14.9188 9.73828 15.2651 9.73828C15.5548 9.73828 15.7331 9.90482 15.7389 10.1627C15.7416 10.2259 15.731 10.289 15.7078 10.3476C15.6846 10.4063 15.6492 10.4592 15.6042 10.5028C15.5592 10.5464 15.5054 10.5796 15.4467 10.6003C15.3879 10.6209 15.3255 10.6285 15.2636 10.6226C14.5711 10.6226 13.8776 10.6226 13.1831 10.6226C13.1215 10.6283 13.0595 10.6206 13.0012 10.6C12.9428 10.5794 12.8894 10.5464 12.8446 10.5031C12.7998 10.4599 12.7645 10.4074 12.7412 10.3493C12.7178 10.2911 12.707 10.2285 12.7093 10.1657C12.7165 9.91072 12.8933 9.74712 13.1845 9.7427C13.5308 9.73828 13.8785 9.73828 14.2248 9.73828Z" fill="#C0AA9E"/>
<path d="M3.79335 15.035C3.58182 15.035 3.36884 15.035 3.1573 15.035C3.04203 15.0373 2.93055 14.993 2.84741 14.9117C2.76426 14.8305 2.71626 14.7189 2.71395 14.6017C2.71165 14.4844 2.75523 14.371 2.83512 14.2864C2.915 14.2019 3.02464 14.153 3.13992 14.1507C3.57264 14.1399 4.0073 14.1399 4.44389 14.1507C4.55917 14.1507 4.66973 14.1973 4.75124 14.2802C4.83276 14.3631 4.87855 14.4756 4.87855 14.5928C4.87858 14.652 4.86692 14.7106 4.84426 14.7652C4.82161 14.8197 4.78842 14.869 4.74667 14.9103C4.70491 14.9515 4.65545 14.9838 4.6012 15.0052C4.54695 15.0266 4.48902 15.0368 4.43085 15.035H3.79335Z" fill="#C0AA9E"/>
<path d="M14.6477 15.0343C14.4362 15.0343 14.2232 15.0343 14.0117 15.0343C13.9087 15.0203 13.8141 14.9692 13.745 14.8903C13.6758 14.8114 13.6368 14.71 13.6348 14.6043C13.6329 14.4986 13.6683 14.3958 13.7345 14.3143C13.8007 14.2329 13.8934 14.1783 13.9957 14.1603C14.4304 14.1471 14.8781 14.1471 15.3186 14.1603C15.422 14.1764 15.5164 14.2299 15.5842 14.311C15.652 14.3921 15.6887 14.4954 15.6877 14.6019C15.6866 14.7084 15.6478 14.8109 15.5784 14.8906C15.509 14.9703 15.4136 15.0219 15.3099 15.0358C15.094 15.0446 14.868 15.0343 14.6477 15.0343Z" fill="#C0AA9E"/>
<path d="M8.1399 19.466C8.04717 19.466 7.95299 19.466 7.86172 19.4498C7.75982 19.4381 7.66553 19.3892 7.59628 19.3123C7.52704 19.2354 7.48751 19.1355 7.48501 19.0312C7.47925 18.9255 7.51267 18.8215 7.57866 18.7396C7.64464 18.6578 7.73841 18.6041 7.84143 18.5891C8.00957 18.567 8.1795 18.5625 8.34853 18.5758C8.46381 18.5758 8.57437 18.6224 8.65588 18.7053C8.7374 18.7882 8.78319 18.9007 8.78319 19.018C8.78319 19.1352 8.7374 19.2477 8.65588 19.3306C8.57437 19.4135 8.46381 19.4601 8.34853 19.4601C8.28189 19.4601 8.21379 19.4601 8.14569 19.4601L8.1399 19.466Z" fill="#C0AA9E"/>
</svg>
