<svg width="22" height="21" viewBox="0 0 22 21" fill="none" xmlns="http://www.w3.org/2000/svg">
<path d="M15.6687 21H5.33401C4.89012 20.9319 4.45048 20.8385 4.01723 20.7203C2.84757 20.3543 1.82639 19.6224 1.10415 18.6322C0.381914 17.6421 -0.00318848 16.4461 0.005587 15.2206C-0.00698375 12.0779 0.005587 8.93522 0.005587 5.79253C-0.00997152 4.80961 0.239728 3.84066 0.728405 2.98768C1.87077 1.03607 3.58825 0.0256953 5.85099 0.0115532C8.95282 -0.00887423 12.0562 0.00212518 15.1581 0.0115532C15.5474 0.0044918 15.9363 0.040325 16.3177 0.118405C18.6747 0.641662 20.1785 2.07316 20.829 4.39561C20.9155 4.70987 20.9469 5.02414 21.0035 5.33841V15.6684C20.9689 15.8821 20.9453 16.099 20.8982 16.3111C20.365 18.666 18.9366 20.1714 16.6131 20.8272C16.3036 20.9136 15.983 20.9481 15.6687 21ZM4.74633 10.4877C4.72433 13.6414 7.28248 16.2137 10.4802 16.2561C13.6229 16.2954 16.2344 13.7027 16.2564 10.5113C16.2573 8.98712 15.6546 7.52464 14.5801 6.44366C13.5056 5.36269 12.0467 4.75118 10.5226 4.74287C7.37519 4.70202 4.77462 7.29631 4.74633 10.4877ZM18.3495 4.39403C18.3495 3.93061 18.1654 3.48617 17.8377 3.15848C17.51 2.83079 17.0655 2.6467 16.6021 2.6467C16.1387 2.6467 15.6943 2.83079 15.3666 3.15848C15.0389 3.48617 14.8548 3.93061 14.8548 4.39403C14.8548 4.85746 15.0389 5.3019 15.3666 5.62959C15.6943 5.95727 16.1387 6.14137 16.6021 6.14137C17.0655 6.14137 17.51 5.95727 17.8377 5.62959C18.1654 5.3019 18.3495 4.85746 18.3495 4.39403Z" fill="#F9F0EC"/>
<path d="M10.5068 15.0145C9.61309 15.0161 8.739 14.7524 7.9952 14.2569C7.25141 13.7614 6.67136 13.0564 6.32848 12.231C5.98561 11.4057 5.89533 10.4972 6.06907 9.62051C6.24282 8.74384 6.67278 7.93843 7.30452 7.30626C7.93626 6.67408 8.74136 6.24356 9.61792 6.0692C10.4945 5.89484 11.403 5.98449 12.2286 6.32679C13.0542 6.66909 13.7596 7.24865 14.2557 7.9921C14.7517 8.73555 15.0159 9.60945 15.015 10.5032C15.0133 11.6986 14.5379 12.8446 13.6929 13.6902C12.8479 14.5358 11.7022 15.012 10.5068 15.0145Z" fill="#F9F0EC"/>
<path d="M17.1085 4.38883C17.1081 4.52295 17.0553 4.6516 16.9614 4.74732C16.8674 4.84303 16.7398 4.89822 16.6057 4.90109C16.4715 4.89709 16.3441 4.84169 16.2496 4.74635C16.1551 4.65101 16.1009 4.52301 16.0981 4.38883C16.1017 4.25811 16.1551 4.1337 16.2474 4.04109C16.3397 3.94848 16.464 3.89468 16.5947 3.89071C16.6612 3.88947 16.7273 3.90138 16.7892 3.92578C16.851 3.95018 16.9075 3.98657 16.9552 4.03287C17.003 4.07916 17.0411 4.13445 17.0674 4.19554C17.0937 4.25663 17.1077 4.32232 17.1085 4.38883Z" fill="#F9F0EC"/>
</svg>
