<svg width="262" height="68" viewBox="0 0 262 68" fill="none" xmlns="http://www.w3.org/2000/svg">
<path d="M6.03948 68.0001C4.84922 68.0001 3.70304 67.8258 2.60095 67.4616C1.51355 67.0973 0.631868 66.6222 0 66.0362L0.98454 63.6764C1.61641 64.2149 2.38052 64.6425 3.2769 64.9909C4.20266 65.3235 5.11372 65.4819 6.03948 65.4819C7.18566 65.4819 8.02325 65.2918 8.58165 64.8959C9.15474 64.5 9.43394 63.9932 9.43394 63.3438C9.43394 62.8687 9.27229 62.4886 8.94901 62.2035C8.64043 61.8868 8.24367 61.6492 7.77345 61.475C7.30322 61.3008 6.62727 61.1107 5.80437 60.889C4.6288 60.5881 3.68835 60.2872 2.95362 60.0021C2.23358 59.7012 1.61641 59.2419 1.0874 58.6243C0.573089 57.9749 0.323283 57.1197 0.323283 56.0427C0.323283 55.14 0.543699 54.3164 0.999231 53.5721C1.46946 52.8277 2.16011 52.2259 3.08587 51.7983C4.02632 51.3548 5.15781 51.1489 6.49502 51.1489C7.43547 51.1489 8.34654 51.2756 9.2576 51.529C10.1687 51.7824 10.9475 52.1309 11.6087 52.606L10.7124 54.9816C10.0364 54.554 9.34577 54.2372 8.61104 54.0155C7.87631 53.7938 7.17097 53.6829 6.48032 53.6829C5.36353 53.6829 4.51124 53.8888 3.96754 54.2848C3.42384 54.6965 3.15934 55.235 3.15934 55.9002C3.15934 56.3753 3.30629 56.7554 3.61487 57.0405C3.93816 57.3414 4.33491 57.579 4.81983 57.7373C5.30475 57.9115 5.96601 58.1016 6.78891 58.3233C7.93509 58.6084 8.86085 58.9093 9.59558 59.2102C10.3303 59.5111 10.9475 59.9704 11.4618 60.5881C11.9908 61.2058 12.2553 62.061 12.2553 63.1221C12.2553 64.0248 12.0202 64.8484 11.55 65.5928C11.0944 66.3213 10.4038 66.9073 9.46333 67.3507C8.52287 67.7942 7.39139 68.0001 6.03948 68.0001Z" fill="#32281E"/>
<path d="M25.0249 57.1983C25.0249 56.1531 24.7016 55.3453 24.0551 54.791C23.4085 54.2209 22.468 53.9516 21.2337 53.9516H17.898V60.4925H21.2337C22.468 60.4925 23.4085 60.2075 24.0551 59.6531C24.7016 59.0513 25.0249 58.2436 25.0249 57.1983ZM25.0984 67.7778L21.9684 62.9632C21.8362 62.979 21.6451 62.9949 21.3806 62.9949H17.9274V67.7778H15.0767V51.3701H21.3806C22.7032 51.3701 23.864 51.6077 24.8486 52.067C25.8478 52.5421 26.5972 53.2073 27.1262 54.0783C27.6552 54.9494 27.9197 55.9947 27.9197 57.1983C27.9197 58.4337 27.6405 59.4948 27.0674 60.3817C26.509 61.2686 25.7155 61.9337 24.6575 62.3772L28.1842 67.7778H25.0984Z" fill="#32281E"/>
<path d="M42.5849 65.2118V67.7616H31.0938V51.354H42.291V53.9038H33.9445V58.1641H41.3506V60.6664H33.9445V65.196H42.5849V65.2118Z" fill="#32281E"/>
<path d="M52.3277 65.196C53.4592 65.196 54.4438 64.9742 55.2814 64.5149C56.1483 64.0398 56.7949 63.3905 57.2504 62.5511C57.7206 61.6959 57.9558 60.6981 57.9558 59.5737C57.9558 58.4492 57.7206 57.4673 57.2504 56.612C56.7949 55.7568 56.1336 55.0916 55.2814 54.6482C54.4291 54.1731 53.4445 53.9514 52.3277 53.9514H48.61V65.2118L52.3277 65.196ZM45.7593 51.354H52.46C54.0911 51.354 55.5459 51.7024 56.8243 52.3834C58.088 53.0486 59.0725 54.0147 59.7779 55.2659C60.4832 56.5012 60.8359 57.9265 60.8359 59.5578C60.8359 61.1891 60.4832 62.6145 59.7779 63.8656C59.0725 65.1009 58.088 66.067 56.8243 66.748C55.5606 67.4132 54.1058 67.7616 52.46 67.7616H45.7593V51.354Z" fill="#32281E"/>
<path d="M72.6352 61.5853L69.7404 54.4109L66.8749 61.5853H72.6352ZM73.5757 63.9768H65.9051L64.3916 67.7778H61.4526L68.3444 51.3701H71.1511L78.0722 67.7778H75.0892L73.5757 63.9768Z" fill="#32281E"/>
<path d="M94.1481 65.196C95.2795 65.196 96.2641 64.9742 97.1017 64.5149C97.9687 64.0398 98.6152 63.3905 99.0708 62.5511C99.541 61.6959 99.7761 60.6981 99.7761 59.5737C99.7761 58.4492 99.541 57.4673 99.0708 56.612C98.6152 55.7568 97.954 55.0916 97.1017 54.6482C96.2494 54.1731 95.2649 53.9514 94.1481 53.9514H90.4303V65.2118L94.1481 65.196ZM87.5796 51.354H94.2803C95.9114 51.354 97.3662 51.7024 98.6446 52.3834C99.9231 53.0486 100.893 54.0147 101.598 55.2659C102.304 56.5012 102.656 57.9265 102.656 59.5578C102.656 61.1891 102.304 62.6145 101.598 63.8656C100.893 65.1009 99.9084 66.067 98.6446 66.748C97.3662 67.4132 95.9261 67.7616 94.2803 67.7616H87.5796V51.354Z" fill="#32281E"/>
<path d="M117.175 65.2118V67.7616H105.669V51.354H116.866V53.9038H108.52V58.1641H115.926V60.6664H108.52V65.196H117.175V65.2118Z" fill="#32281E"/>
<path d="M134.161 51.354L127.475 67.7616H124.669L117.968 51.354H121.054L126.153 64.0082L131.296 51.354H134.161Z" fill="#32281E"/>
<path d="M147.269 65.2118V67.7616H135.778V51.354H146.975V53.9038H138.629V58.1641H146.035V60.6664H138.629V65.196H147.269V65.2118Z" fill="#32281E"/>
<path d="M150.443 51.354H153.294V65.1801H161.317V67.7616H150.458V51.354H150.443Z" fill="#32281E"/>
<path d="M170.442 65.3388C171.471 65.3388 172.382 65.1012 173.205 64.6102C174.028 64.1034 174.66 63.4224 175.13 62.5514C175.6 61.6645 175.835 60.6667 175.835 59.5739C175.835 58.4811 175.6 57.4992 175.13 56.6123C174.66 55.7254 174.028 55.0286 173.205 54.5534C172.382 54.0466 171.471 53.8091 170.442 53.8091C169.429 53.8091 168.503 54.0625 167.68 54.5534C166.857 55.0444 166.225 55.7254 165.755 56.6123C165.285 57.4834 165.05 58.4811 165.05 59.5739C165.05 60.6667 165.285 61.6645 165.755 62.5514C166.225 63.4224 166.857 64.1193 167.68 64.6102C168.503 65.0854 169.429 65.3388 170.442 65.3388ZM170.442 67.9995C168.885 67.9995 167.474 67.6352 166.21 66.9225C164.947 66.194 163.962 65.1804 163.257 63.8975C162.537 62.5989 162.184 61.1577 162.184 59.5581C162.184 57.9585 162.537 56.5173 163.257 55.2503C163.977 53.9516 164.961 52.938 166.21 52.2253C167.459 51.4968 168.87 51.1167 170.442 51.1167C172.015 51.1167 173.411 51.481 174.674 52.2253C175.938 52.938 176.923 53.9516 177.628 55.2186C178.348 56.5014 178.701 57.9426 178.701 59.5581C178.701 61.1735 178.348 62.6147 177.628 63.8975C176.908 65.1804 175.924 66.194 174.674 66.9225C173.425 67.651 172.015 67.9995 170.442 67.9995Z" fill="#32281E"/>
<path d="M187.9 60.4608C189.149 60.4608 190.089 60.1757 190.721 59.6214C191.368 59.0512 191.691 58.2594 191.691 57.2141C191.691 56.1688 191.368 55.3611 190.721 54.8068C190.075 54.2366 189.134 53.9674 187.9 53.9674H184.564V60.4925H187.9V60.4608ZM188.032 51.3542C189.355 51.3542 190.515 51.5918 191.5 52.0511C192.499 52.5262 193.249 53.1914 193.778 54.0624C194.307 54.9335 194.571 55.9788 194.571 57.1824C194.571 58.3702 194.307 59.4155 193.778 60.3024C193.249 61.1735 192.485 61.8545 191.5 62.3138C190.515 62.7889 189.369 63.0106 188.032 63.0106H184.564V67.7461H181.713V51.3384L188.032 51.3542Z" fill="#32281E"/>
<path d="M211.499 67.7778L211.47 56.8974L206.43 65.909H205.166L200.126 57.04V67.7778H197.407V51.3701H199.744L205.842 62.2505L211.823 51.3701H214.159L214.188 67.7778H211.499Z" fill="#32281E"/>
<path d="M229.838 65.2118V67.7616H218.332V51.354H229.529V53.9038H221.183V58.1641H228.589V60.6664H221.183V65.196H229.838V65.2118Z" fill="#32281E"/>
<path d="M246.634 51.354V67.7616H244.298L235.834 56.6437V67.7616H233.012V51.354H235.363L243.813 62.4719V51.354H246.634Z" fill="#32281E"/>
<path d="M253.849 53.9355H248.765V51.354H261.784V53.9355H256.7V67.7775H253.849V53.9355Z" fill="#32281E"/>
<path d="M17.1776 14.5703C22.6146 16.1857 28.7275 17.9912 28.7275 26.1158C28.7275 32.4825 23.6873 35.7134 13.8125 35.7134H13.7685C5.24559 35.7134 2.48301 32.7993 2.39484 32.6884C2.29198 32.5934 2.24789 32.4825 2.20381 32.3716C2.15973 32.2608 0.0290135 25.2289 0.0290135 25.2289C-0.0738486 24.8172 0.146567 24.3262 0.558015 24.1837C0.92538 24.057 1.32214 24.2628 1.48378 24.6113C1.52786 24.6905 1.54256 24.7855 1.57195 24.8647C3.90838 32.435 7.9494 34.0346 13.7244 34.0346C18.8087 34.0346 21.6154 32.1024 21.6154 28.5073C21.6154 25.2764 18.5589 24.0253 13.5774 22.3465C8.00818 20.4618 1.08702 18.1179 1.08702 9.61315C1.08702 3.13561 5.64234 0.015625 14.9293 0.015625C21.0276 0.015625 24.2163 2.47044 24.3632 2.56546C24.5102 2.66049 24.6131 2.8347 24.6571 3.04059L25.8621 8.10859C26.0825 9.18554 24.5984 9.61315 24.3192 8.52037C23.3493 4.24424 19.8226 1.67856 14.9293 1.67856C10.4769 1.67856 8.30206 3.49987 8.30206 7.20585C8.30206 11.9571 12.3725 13.1608 17.06 14.5069L17.1776 14.5703Z" fill="#32281E"/>
<path d="M42.8057 34.2089H41.013V2.85065H42.5559C52.3278 2.96151 58.382 8.94809 58.382 18.5614C58.382 28.0481 52.4307 34.0505 42.8057 34.2089ZM60.5715 6.23987C57.177 2.94568 52.3866 1.17188 46.7733 1.17188H42.2767L32.0199 1.21939C31.9464 1.21939 31.8877 1.21939 31.8142 1.21939C31.4174 1.2669 31.1382 1.61532 31.1382 2.04294C31.1382 2.42304 31.4027 2.7873 31.7701 2.86648C31.9317 2.89816 32.0934 2.88232 32.255 2.914C32.8281 3.00902 33.8861 3.4208 33.8861 5.02039V31.9916C33.8861 33.6071 32.8428 34.0822 32.2256 34.2089C32.0493 34.2406 31.8436 34.2247 31.6672 34.2722C31.3587 34.3673 31.1235 34.684 31.1235 35.08C31.1235 35.5551 31.4615 35.9193 31.9023 35.9193H46.7733C52.3866 35.9193 57.177 34.1297 60.5715 30.8513C63.7602 27.7155 65.5089 23.3444 65.5089 18.5298C65.5089 13.7468 63.7602 9.35986 60.5715 6.23987Z" fill="#32281E"/>
<path d="M240.257 22.2045C240.021 22.2045 239.874 21.9987 239.874 21.7928V3.35792C239.874 3.10452 240.021 2.94614 240.257 2.94614H243.504C251.013 2.94614 254.643 6.17699 254.643 12.8129C254.643 19.2746 251.204 22.2045 243.504 22.2045H240.257ZM249.352 1.2832H230.72C230.279 1.2832 229.941 1.64747 229.941 2.12259C229.941 2.53437 230.279 2.96198 230.72 2.96198C231.058 2.96198 232.703 3.07284 232.703 5.10004V32.0713C232.703 32.4356 232.601 34.2569 230.72 34.2569C230.279 34.2569 229.941 34.6212 229.941 35.0963C229.941 35.5397 230.25 35.9357 230.676 35.9357H241.858C242.299 35.9357 242.608 35.5872 242.608 35.1279C242.622 34.7003 242.373 34.3519 242.005 34.2886C241.888 34.2727 241.785 34.2727 241.667 34.2569C241.359 34.2094 240.756 34.0668 240.359 33.6551C240.021 33.2908 239.874 32.7682 239.874 32.0872V24.3109C239.874 24.105 240.021 23.8992 240.257 23.8992H249.352C257.243 23.8992 261.74 19.8764 261.74 12.8446C261.74 8.98023 260.329 5.8444 257.728 3.8172C255.598 2.1701 252.644 1.2832 249.352 1.2832Z" fill="#32281E"/>
<path d="M226.796 1.21994H221.521C221.08 1.21994 220.757 1.5842 220.757 2.04349C220.757 2.42359 220.992 2.74034 221.286 2.83537C221.506 2.89872 221.58 2.8512 221.785 2.89872C222.329 3.00958 223.358 3.45303 223.358 5.13181V18.5937C223.358 26.9876 218.567 33.0533 211.925 33.0533C206.209 33.0533 202.873 30.7094 202.873 18.5937V5.02094C202.873 3.57973 203.682 3.1046 204.255 2.94623C204.49 2.88288 204.725 2.91455 204.945 2.8512C205.283 2.75618 205.518 2.43943 205.518 2.02765C205.518 1.55253 205.195 1.2041 204.754 1.2041H193.91C193.469 1.2041 193.131 1.56837 193.131 2.04349C193.131 2.43943 193.381 2.77201 193.719 2.8512C193.895 2.89871 194.101 2.88288 194.277 2.93039C194.556 2.99374 194.953 3.13628 195.262 3.45303C195.6 3.81729 195.746 4.33993 195.746 5.02094V18.5937C195.746 29.7591 200.919 35.9199 210.324 35.9199C218.744 35.9199 224.901 28.6663 224.901 18.5937V5.13181C224.901 3.40552 225.973 2.99374 226.532 2.91455C226.649 2.89872 226.767 2.89872 226.884 2.88288C227.266 2.83537 227.56 2.48694 227.56 2.05933C227.575 1.60004 227.237 1.21994 226.796 1.21994Z" fill="#32281E"/>
<path d="M183.682 17.9915C183.682 25.4984 180.729 34.2724 172.5 34.2724C164.227 34.2724 161.317 25.5143 161.317 17.9915C161.317 10.4687 164.227 1.71051 172.5 1.71051C180.729 1.71051 183.682 10.4687 183.682 17.9915ZM184.99 4.46624C181.699 1.59965 177.246 0.0317383 172.5 0.0317383C167.46 0.0317383 162.919 1.59965 159.716 4.46624C156.086 7.64957 154.19 12.3533 154.19 17.9756C154.19 23.5504 156.174 28.2542 159.951 31.485C163.242 34.3041 167.695 35.9195 172.485 35.9195C177.232 35.9195 181.684 34.3041 184.976 31.485C188.796 28.2542 190.78 23.5504 190.78 17.9756C190.78 12.4008 188.811 7.71292 184.99 4.46624Z" fill="#32281E"/>
<path d="M127.109 21.7291V3.31007C127.109 3.05667 127.3 2.89829 127.491 2.89829H130.782C138.291 2.89829 141.921 6.12914 141.921 12.7651C141.921 19.2901 138.482 22.1567 130.782 22.1567H127.491C127.3 22.1567 127.109 21.935 127.109 21.7291ZM150.767 34.2407C148.871 34.1457 148.004 33.4488 146.461 31.485L140.466 23.8196C140.319 23.6613 140.378 23.5029 140.569 23.4554C145.991 22.2517 149.048 18.4982 149.048 12.7651C149.048 8.90071 147.652 5.76488 145.036 3.73768C142.905 2.12225 139.952 1.23535 136.66 1.23535H118.027C117.586 1.23535 117.249 1.59961 117.249 2.07474C117.249 2.439 117.513 2.80326 117.866 2.88245C118.13 2.9458 118.468 2.9458 118.689 3.00915C119.276 3.1992 120.026 3.69016 120.026 5.03635V32.071C120.026 32.4036 119.938 34.0031 118.424 34.2407C118.233 34.2724 118.042 34.2407 117.851 34.2882C117.498 34.3832 117.249 34.7 117.249 35.1118C117.249 35.4919 117.484 35.8403 117.822 35.9195C117.924 35.9512 118.027 35.9353 118.13 35.9353H129.166C129.607 35.9353 129.901 35.5869 129.915 35.1434C129.93 34.7317 129.71 34.3674 129.342 34.2882C129.166 34.2407 128.96 34.2565 128.784 34.2249C128.461 34.1615 128.005 34.0031 127.667 33.6389C127.329 33.2746 127.138 32.752 127.138 32.071V24.2472C127.138 24.0414 127.329 23.8355 127.52 23.8355H131.928C132.119 23.8355 132.413 23.9938 132.56 24.1522C135.22 27.5414 138.085 31.1366 139.188 32.6094C139.437 32.9262 139.526 33.2429 139.379 33.5439C139.261 33.8289 138.938 34.1298 138.409 34.2249C138.218 34.2565 137.924 34.2565 137.806 34.2882C137.454 34.3674 137.189 34.7 137.189 35.1118C137.189 35.5235 137.527 35.9512 137.968 35.9512C142.347 35.9512 146.711 35.9512 151.09 35.9512C151.531 35.9512 151.869 35.5394 151.869 35.1118C151.869 34.7 151.604 34.3674 151.252 34.2882C151.075 34.2407 150.914 34.2565 150.767 34.2407Z" fill="#32281E"/>
<path d="M114.089 14.0162H95.1622C94.8684 14.0162 94.5892 14.2221 94.4422 14.5388L92.9287 18.8466C92.8699 19.005 92.8111 19.1475 92.7964 19.3059C92.767 19.6702 92.9581 20.0344 93.2666 20.1611C93.6046 20.2878 93.9132 20.177 94.1189 19.9394C94.2365 19.7969 94.2953 19.6068 94.3687 19.4326C95.3386 17.057 98.2775 15.6791 102.319 15.6791H105.125V26.2269C105.125 30.9781 102.274 34.1615 97.9101 34.2565C87.5505 34.0981 86.0516 23.4078 85.9047 18.8625C85.9047 18.5457 85.9047 18.2923 85.9047 17.9756V17.0887C86.0516 12.5433 87.5505 1.80548 98.013 1.69461C103.156 1.80548 108.593 4.41866 108.667 10.0885C108.667 10.1835 108.667 10.3102 108.681 10.3419C108.74 10.7378 109.063 11.0229 109.445 11.0229C109.813 11.0229 110.121 10.7537 110.195 10.3894C110.21 10.3261 110.21 10.136 110.21 9.99346V4.24445C110.21 4.03856 110.165 3.88019 110.063 3.70598C108.755 1.36203 104.64 0.0475125 98.204 0H98.1599C98.1159 0 98.013 0 97.9689 0H97.675C92.5466 0 87.8443 1.56791 84.5087 4.38699C80.7762 7.61784 78.7925 12.2741 78.7925 17.9597C78.7925 18.324 78.7925 18.7358 78.7925 19.1C79.0423 24.2155 81.0261 28.4916 84.5087 31.4691C87.8443 34.3357 92.5907 35.9036 97.7779 35.9036H97.9248C97.9689 35.9036 98.0718 35.9036 98.1746 35.9036H98.3216C103.891 35.6977 108.872 32.356 112.164 26.6703C112.267 26.512 112.267 26.3536 112.267 26.1952V20.1453C112.267 17.833 113.031 16.376 113.648 15.8692C113.927 15.6633 114.236 15.6633 114.353 15.6158C114.383 15.5999 114.397 15.5999 114.427 15.5841C114.691 15.4574 114.882 15.1723 114.882 14.8239C114.868 14.3804 114.515 14.0162 114.089 14.0162Z" fill="#32281E"/>
</svg>
