<svg id="Слой_1" data-name="Слой 1" xmlns="http://www.w3.org/2000/svg" viewBox="0 0 272 140"><defs><style>.cls-1,.cls-2{fill:#32281e;}.cls-1{fill-rule:evenodd;}</style></defs><path class="cls-1" d="M10,131.55a22.59,22.59,0,0,0-2.91-.86c-.85-.21-1.54-.39-2-.56a3.37,3.37,0,0,1-1.25-.67A1.55,1.55,0,0,1,3.4,129a1.41,1.41,0,0,1-.11-.61,1.83,1.83,0,0,1,.84-1.55,4.72,4.72,0,0,1,2.6-.58,8.26,8.26,0,0,1,2.21.32,9.12,9.12,0,0,1,2.18.93l.93-2.28a7.53,7.53,0,0,0-2.44-1,11.51,11.51,0,0,0-2.86-.37,8.76,8.76,0,0,0-3.54.63,4.88,4.88,0,0,0-2.16,1.7,4.3,4.3,0,0,0-.7,2.38A3.67,3.67,0,0,0,1.14,131a5.18,5.18,0,0,0,1.94,1.33,27.58,27.58,0,0,0,3,.85c.85.21,1.56.4,2,.56a3.53,3.53,0,0,1,1.22.7,1.51,1.51,0,0,1,.38.49,1.28,1.28,0,0,1,.12.61A1.71,1.71,0,0,1,8.91,137a4.76,4.76,0,0,1-2.63.57,9,9,0,0,1-2.87-.47A8.22,8.22,0,0,1,1,135.84l-1,2.27a7.53,7.53,0,0,0,2.69,1.37,12,12,0,0,0,3.57.52,8.87,8.87,0,0,0,3.54-.62,4.87,4.87,0,0,0,2.17-1.7,4.15,4.15,0,0,0,.73-2.37,3.51,3.51,0,0,0-.82-2.44A5,5,0,0,0,10,131.55Z"/><path class="cls-1" d="M28.07,132.67a5.23,5.23,0,0,0,.88-3.06,5.37,5.37,0,0,0-.82-3,5.24,5.24,0,0,0-2.36-1.93,8.85,8.85,0,0,0-3.59-.67H15.64v15.78h3v-4.6h3.58l.61,0L26,139.79h3.2l-3.66-5.2A5.11,5.11,0,0,0,28.07,132.67Zm-6.05.11H18.57v-6.29H22a4.59,4.59,0,0,1,2.93.81,2.78,2.78,0,0,1,1,2.31A2.93,2.93,0,0,1,25,132,4.59,4.59,0,0,1,22,132.78Z"/><polygon class="cls-1" points="35.2 132.95 42.88 132.95 42.88 130.54 35.2 130.54 35.2 126.44 43.85 126.44 43.85 123.99 32.24 123.99 32.24 139.77 44.15 139.77 44.15 137.32 44.15 137.3 35.2 137.3 35.2 132.95"/><path class="cls-1" d="M58.91,125a10.1,10.1,0,0,0-4.52-1h-7v15.78h7a10.18,10.18,0,0,0,4.52-1A7.4,7.4,0,0,0,62,136a8.32,8.32,0,0,0,0-8.27A7.19,7.19,0,0,0,58.91,125Zm.44,9.78a4.83,4.83,0,0,1-2,1.89,6.7,6.7,0,0,1-3.06.65l-3.85,0V126.49h3.85a6.51,6.51,0,0,1,3.06.67,4.61,4.61,0,0,1,2,1.89,5.37,5.37,0,0,1,.73,2.85A5.42,5.42,0,0,1,59.35,134.76Z"/><path class="cls-1" d="M70.85,124l-7.14,15.78h3.05l1.56-3.66h8l1.57,3.66h3.09L73.76,124Zm-1.52,9.82,3-6.9,3,6.9Z"/><path class="cls-1" d="M102.26,125a10.1,10.1,0,0,0-4.52-1H90.79v15.78h6.95a10.22,10.22,0,0,0,4.52-1,7.46,7.46,0,0,0,3.06-2.78,8.32,8.32,0,0,0,0-8.27A7.13,7.13,0,0,0,102.26,125Zm.44,9.78a4.83,4.83,0,0,1-2,1.89,6.7,6.7,0,0,1-3.06.65l-3.85,0V126.49H97.6a6.51,6.51,0,0,1,3.06.67,4.61,4.61,0,0,1,2,1.89,5.46,5.46,0,0,1,.73,2.85A5.52,5.52,0,0,1,102.7,134.76Z"/><polygon class="cls-1" points="112.49 132.95 120.17 132.95 120.17 130.54 112.49 130.54 112.49 126.44 121.14 126.44 121.14 123.99 109.54 123.99 109.54 139.77 121.46 139.77 121.46 137.32 121.46 137.3 112.49 137.3 112.49 132.95"/><polygon class="cls-1" points="130.77 136.16 125.48 123.99 122.28 123.99 129.23 139.77 132.14 139.77 139.07 123.99 136.1 123.99 130.77 136.16"/><polygon class="cls-1" points="143.7 132.95 151.38 132.95 151.38 130.54 143.7 130.54 143.7 126.44 152.35 126.44 152.35 123.99 140.74 123.99 140.74 139.77 152.65 139.77 152.65 137.32 152.65 137.3 143.7 137.3 143.7 132.95"/><polygon class="cls-1" points="158.9 123.99 155.96 123.99 155.96 139.77 167.22 139.77 167.22 137.29 158.9 137.29 158.9 123.99"/><path class="cls-1" d="M184.12,127.71a7.58,7.58,0,0,0-3.06-2.88,8.9,8.9,0,0,0-4.38-1.07,9.08,9.08,0,0,0-4.39,1.07,7.84,7.84,0,0,0-4.17,7,7.93,7.93,0,0,0,1.11,4.17,7.65,7.65,0,0,0,3.06,2.91,9.31,9.31,0,0,0,4.39,1,9.06,9.06,0,0,0,4.38-1,8,8,0,0,0,3.95-5,8.18,8.18,0,0,0,.2-3.23A7.92,7.92,0,0,0,184.12,127.71Zm-2.59,7a5.26,5.26,0,0,1-2,2,5.74,5.74,0,0,1-2.86.7,6,6,0,0,1-2.87-.7,5.19,5.19,0,0,1-2-2,5.62,5.62,0,0,1-.73-2.86,5.48,5.48,0,0,1,.73-2.85,5.05,5.05,0,0,1,2-2,5.88,5.88,0,0,1,2.87-.72,5.63,5.63,0,0,1,2.86.72,4.93,4.93,0,0,1,2,2,5.88,5.88,0,0,1,0,5.71Z"/><path class="cls-1" d="M198.5,124.66a9.19,9.19,0,0,0-3.59-.67h-6.56v15.78h3V135.2h3.6a8.65,8.65,0,0,0,3.59-.67,5.24,5.24,0,0,0,2.36-1.93,5.39,5.39,0,0,0,.82-3,5.33,5.33,0,0,0-.82-3A5.26,5.26,0,0,0,198.5,124.66Zm-.81,7.28a4.56,4.56,0,0,1-2.92.81v0h-3.46v-6.27h3.46a4.62,4.62,0,0,1,2.92.8,3.16,3.16,0,0,1,0,4.63Z"/><polygon class="cls-1" points="219.56 124.01 213.37 134.47 207.04 124.01 204.62 124.01 204.62 139.79 207.44 139.79 207.44 129.46 212.66 137.99 213.97 137.99 219.2 129.32 219.23 139.79 222.02 139.79 221.99 124.01 219.56 124.01"/><polygon class="cls-1" points="229.26 132.95 236.94 132.95 236.94 130.54 229.26 130.54 229.26 126.44 237.92 126.44 237.92 123.99 226.31 123.99 226.31 139.77 238.24 139.77 238.24 137.32 238.24 137.3 229.26 137.3 229.26 132.95"/><polygon class="cls-1" points="252.72 134.68 243.96 123.99 241.53 123.99 241.53 139.77 244.45 139.77 244.45 129.08 253.22 139.77 255.65 139.77 255.65 123.99 252.72 123.99 252.72 134.68"/><polygon class="cls-1" points="257.85 126.47 263.12 126.47 263.12 139.79 266.08 139.79 266.08 126.47 271.35 126.47 271.35 123.99 257.85 123.99 257.85 126.47"/><path class="cls-1" d="M2.3,31.13a.79.79,0,0,0,.2.31c.09.1,3,2.9,11.78,2.9h.05c10.24,0,15.46-3.1,15.46-9.22,0-7.82-6.34-9.55-12-11.11L17.7,14c-4.86-1.29-9.08-2.45-9.08-7,0-3.56,2.25-5.32,6.87-5.32,5.07,0,8.73,2.47,9.73,6.58a.82.82,0,0,0,1.6-.39L25.57,2.92a.57.57,0,0,0-.11-.25.73.73,0,0,0-.19-.2C25.11,2.38,21.81,0,15.49,0,5.86,0,1.14,3,1.14,9.24c0,8.18,7.17,10.44,13,12.25,5.16,1.61,8.33,2.82,8.33,5.92,0,3.46-2.91,5.32-8.18,5.32-6,0-10.17-1.54-12.6-8.82a1.17,1.17,0,0,0-.09-.24.78.78,0,0,0-.4-.38.77.77,0,0,0-.56,0,.87.87,0,0,0-.47.39.87.87,0,0,0-.08.61S2.25,31,2.3,31.13Z"/><path class="cls-1" d="M33.42,32.9a5.42,5.42,0,0,0-.58.06.8.8,0,0,0-.44.35.78.78,0,0,0-.11.54.8.8,0,0,0,.27.5.81.81,0,0,0,.52.19H48.5c5.81,0,10.78-1.72,14.3-4.87a15.82,15.82,0,0,0,5.11-11.85A15.77,15.77,0,0,0,62.8,6c-3.52-3.17-8.49-4.87-14.3-4.87H43.84l-10.64,0H33a.79.79,0,0,0-.7.79.83.83,0,0,0,.19.52.84.84,0,0,0,.47.28c.16,0,.33,0,.5,0a1.89,1.89,0,0,1,1.69,2V30.77A2,2,0,0,1,33.42,32.9ZM42.53,2.74h1.59c10.13.11,16.41,5.87,16.41,15.11s-6.17,14.9-16.15,15H42.53Z"/><path class="cls-1" d="M239.15,32.94a.81.81,0,0,0-.31.06.8.8,0,0,0-.27.18.78.78,0,0,0-.17.26.81.81,0,0,0-.06.31,1,1,0,0,0,0,.3.65.65,0,0,0,.17.26.69.69,0,0,0,.24.18.82.82,0,0,0,.3.07h11.59a.87.87,0,0,0,.53-.22.75.75,0,0,0,.24-.51.8.8,0,0,0-.14-.54.85.85,0,0,0-.47-.32l-.35,0a2.49,2.49,0,0,1-1.36-.58,2,2,0,0,1-.5-1.5V23.38a.4.4,0,0,1,0-.15.41.41,0,0,1,.08-.13.38.38,0,0,1,.13-.09.4.4,0,0,1,.15,0h9.43c8.18,0,12.84-3.87,12.84-10.63a10.25,10.25,0,0,0-4.16-8.68,15,15,0,0,0-8.68-2.44H239.15a.81.81,0,0,0-.31.06.8.8,0,0,0-.27.18.78.78,0,0,0-.17.26.81.81,0,0,0-.06.31.86.86,0,0,0,.81.81,1.93,1.93,0,0,1,2.06,2.05V30.84A2,2,0,0,1,239.15,32.94Zm9.49-29.71a.3.3,0,0,1,0-.16.57.57,0,0,1,.08-.13.42.42,0,0,1,.14-.09l.15,0h3.37c7.78,0,11.55,3.11,11.55,9.49,0,6.22-3.57,9-11.55,9H249a.4.4,0,0,1-.15,0,.35.35,0,0,1-.13-.08.57.57,0,0,1-.08-.13.4.4,0,0,1,0-.15Z"/><path class="cls-1" d="M200.8,2.74c.18,0,.4,0,.58.08a2.09,2.09,0,0,1,1,.5,2,2,0,0,1,.5,1.51V17.88c0,10.74,5.36,16.66,15.11,16.66,8.73,0,15.11-7,15.11-16.66V4.93a1.91,1.91,0,0,1,1.69-2.13c.12,0,.24,0,.36,0a.77.77,0,0,0,.51-.26.79.79,0,0,0,.2-.53.81.81,0,0,0-.06-.31.65.65,0,0,0-.17-.26.68.68,0,0,0-.26-.18.81.81,0,0,0-.31-.06h-5.47a.8.8,0,0,0-.3.06.76.76,0,0,0-.43.43.8.8,0,0,0-.06.3.85.85,0,0,0,.15.47.85.85,0,0,0,.4.3c.23.06.31,0,.52.06a2,2,0,0,1,1.63,2.14v13c0,8.07-5,13.91-11.85,13.91-5.93,0-9.38-2.26-9.38-13.91v-13a1.85,1.85,0,0,1,1.43-2c.24-.06.49,0,.71-.09a.78.78,0,0,0,.44-.29A.75.75,0,0,0,213,2a.81.81,0,0,0-.05-.31.78.78,0,0,0-.17-.26,1,1,0,0,0-.27-.17.61.61,0,0,0-.3-.05H201a.79.79,0,0,0-.8.7.8.8,0,0,0,.13.56A.82.82,0,0,0,200.8,2.74Z"/><path class="cls-1" d="M165.8,30.28a21.87,21.87,0,0,0,25.94,0,15.89,15.89,0,0,0,6-13,15.9,15.9,0,0,0-6-13,22.21,22.21,0,0,0-26.19,0c-3.77,3.06-5.73,7.58-5.73,13A16,16,0,0,0,165.8,30.28Zm13-28.64c8.53,0,11.59,8.43,11.59,15.66S187.34,33,178.81,33s-11.59-8.42-11.59-15.66S170.23,1.64,178.81,1.64Z"/><path class="cls-1" d="M122.76,32.93c-.2,0-.4,0-.6,0a.84.84,0,0,0-.45.29.82.82,0,0,0-.17.51.8.8,0,0,0,.16.49.77.77,0,0,0,.43.28,1.17,1.17,0,0,0,.32,0h11.44a.8.8,0,0,0,.3-.06.67.67,0,0,0,.25-.16.85.85,0,0,0,.17-.25.72.72,0,0,0,.06-.29.83.83,0,0,0-.14-.53.81.81,0,0,0-.46-.3c-.18,0-.39,0-.58-.06a2.19,2.19,0,0,1-1.15-.56,2,2,0,0,1-.55-1.51V23.32a.45.45,0,0,1,.12-.27.43.43,0,0,1,.27-.13h4.58a1.16,1.16,0,0,1,.65.31c2.76,3.26,5.73,6.71,6.87,8.13a.78.78,0,0,1,.2.9,1.31,1.31,0,0,1-1,.65c-.2,0-.5,0-.62.06a.75.75,0,0,0-.46.29.78.78,0,0,0-.18.51.82.82,0,0,0,.8.8h13.6a.82.82,0,0,0,.81-.8.83.83,0,0,0-.64-.8,4,4,0,0,0-.5,0c-2-.09-2.86-.76-4.46-2.65l-6.22-7.37c-.15-.16-.09-.31.11-.35,5.62-1.16,8.79-4.77,8.79-10.28a10.24,10.24,0,0,0-4.16-8.69,15.19,15.19,0,0,0-8.68-2.4H122.35a.78.78,0,0,0-.31.06.77.77,0,0,0-.27.17,1.06,1.06,0,0,0-.17.26.87.87,0,0,0-.06.32.75.75,0,0,0,.19.49.79.79,0,0,0,.45.28c.27.06.62.06.85.12a1.86,1.86,0,0,1,1.39,1.95v26A2,2,0,0,1,122.76,32.93Zm9-29.75a.4.4,0,0,1,0-.15.57.57,0,0,1,.08-.13l.13-.08a.41.41,0,0,1,.16,0h3.41c7.78,0,11.54,3.1,11.54,9.49s-3.56,9-11.54,9h-3.41a.42.42,0,0,1-.28-.14.45.45,0,0,1-.12-.27Z"/><path class="cls-1" d="M87.6,30.26C91.06,33,96,34.53,101.36,34.53h.56c5.77-.2,10.94-3.41,14.35-8.88a.83.83,0,0,0,.11-.46V19.37c0-2.22.79-3.62,1.43-4.11a1.93,1.93,0,0,1,.73-.24l.07,0a.79.79,0,0,0,.35-.3.83.83,0,0,0,.13-.43.86.86,0,0,0-.26-.56.85.85,0,0,0-.57-.22H98.65a.89.89,0,0,0-.45.15.85.85,0,0,0-.3.35l-1.57,4.14a2.15,2.15,0,0,0-.14.45.8.8,0,0,0,.46.81.83.83,0,0,0,.49.05.85.85,0,0,0,.43-.25,1.89,1.89,0,0,0,.25-.49c1-2.29,4.06-3.61,8.24-3.61H109V25.22c0,4.57-3,7.63-7.48,7.72-10.73-.15-12.29-10.43-12.44-14.8V16.43c.15-4.37,1.71-14.69,12.55-14.8,5.33.11,11,2.62,11,8.07a1.06,1.06,0,0,0,0,.25.78.78,0,0,0,.27.46.8.8,0,0,0,1,0,.82.82,0,0,0,.3-.45,2.41,2.41,0,0,0,0-.38V4.08a.9.9,0,0,0-.15-.52C112.73,1.31,108.47.05,101.8,0h-.55A22.24,22.24,0,0,0,87.6,4.22a16.07,16.07,0,0,0-5.92,13.05v1.1A15.74,15.74,0,0,0,87.6,30.26Z"/><path class="cls-1" d="M219.33,105.11h0c.17.2.33.38.49.58l.57-.49-.48-.57h0a73.84,73.84,0,0,0-8.44-8.43l-.48.58A75.4,75.4,0,0,1,219.33,105.11Z"/><polygon class="cls-1" points="210.69 96.53 210.97 96.78 211.46 96.2 211.17 95.95 211.17 95.95 210.88 95.71 210.4 96.29 210.69 96.53 210.69 96.53"/><path class="cls-1" d="M271.38,56.86v-.39h0V44.56H0V57.31l0,0v.9l0,0V71.89H0v1.19H0v.38H0v40.22H33.69v0h.38v0H271.35v-.49h0v-.8h0v-50h0V62h0v-.38h0v-.11h0V56.85Zm-19.48-10-3.63,4.33h0c-.87-.1-1.84-.19-2.89-.28-4.67-.39-11.12-.63-18.24-.63-1.27,0-2.52,0-3.73,0l-.22.38c1.3,0,2.61,0,4,0,8.56,0,16.15.35,20.84.88l.09-.11-.09.12.46,0h0l-.27.31.25-.31-.45,0a203.09,203.09,0,0,0-20.86-.87c-1.33,0-2.66,0-3.95,0h-.43v0a2.06,2.06,0,0,0,.43,0l.2-.36h0l2-3.48Zm-68.64,0h18.91l-2.1,5.76h0l-.14.38h0l.14-.38c-7.22.23-13.33.55-17.7.95a2.66,2.66,0,0,0-.28,0h0l-.39,0-.06.37h0l.06-.38h0v0l.39,0ZM199.92,53h0c-7.35.23-13.55.57-17.9,1h0C186.37,53.54,192.55,53.2,199.92,53Zm-35.14-6.14H182.5l-1.19,6.8h0c-1.81.19-3.28.38-4.36.6a8.37,8.37,0,0,0-1.49.39,2.73,2.73,0,0,0-.48.25.55.55,0,0,0-.19.21.6.6,0,0,0-.08.29.78.78,0,0,0,0,.21h-9.94ZM175.1,56h0a.92.92,0,0,1-.22-.17A.92.92,0,0,0,175.1,56Zm-29.19-9.13,2.71,15.34h0l.06.37h0l-.06-.37-.37,0h0l.37,0-2.7-15.34Zm-20.1,0L139,83.12h0a72.82,72.82,0,0,0-10.89,5l.25.45-.25-.43-.32.18h0l.32-.18L111.44,59.26h0l-.21-.36h0l.22.37c.69-.08,1.38-.19,2.07-.34a4,4,0,0,0,.67-.21,1.06,1.06,0,0,0,.26-.17.66.66,0,0,0,.12-.17.52.52,0,0,0,0-.21.54.54,0,0,0-.05-.21.43.43,0,0,0-.13-.17,1,1,0,0,0-.27-.17,7.16,7.16,0,0,0-.75-.23c-.86-.17-1.72-.29-2.59-.38l-.72-.07.18.31-.17-.3h0l-5.83-10.13ZM111,59.31l-.37,0h0l.37,0v0Zm-.27-1.53c.68.08,1.25.16,1.73.23C111.91,57.91,111.34,57.83,110.76,57.78Zm2.48.37h0ZM103.4,46.83l5.8,10,.44.05h0a3.15,3.15,0,0,0-.44,0l.23.39.46,0h0l.23.4.5.87h0l-.5-.87h0l-.22-.38-.46,0,.23.4h0l.54.93.41,0h0l-.41,0,.2.35h0v0c-1.15.11-2.53.2-4.06.29,1.54-.09,2.91-.19,4-.31l-.21-.36c-1.87.18-4.33.33-7.22.45a.38.38,0,0,0-.36.36.39.39,0,0,0,.09.26.38.38,0,0,0,.24.13,21,21,0,0,1,2.36.34.16.16,0,0,1,.09,0,.19.19,0,0,0-.1,0c-.8.15-1.6.26-2.41.33-2.07.2-5,.35-8.33.41a.36.36,0,0,0-.26.11l-.15,0a4.16,4.16,0,0,1-.69.12c-.59.09-1.44.16-2.5.23l-1.75.09h-.45l-.45,0v0c-1.6.06-3.41.09-5.33.09-3.21,0-6.12-.09-8.22-.23-.75,0-1.37-.1-1.89-.16l.17,0c1-.12,2.56-.21,4.35-.27a.36.36,0,0,0,.25-.1.39.39,0,0,0,.12-.25.38.38,0,0,0-.31-.4,1.81,1.81,0,0,1-.27-.06A11.21,11.21,0,0,1,78.35,60a.4.4,0,0,0,.24-.14.39.39,0,0,0,.09-.26.34.34,0,0,0-.11-.25.36.36,0,0,0-.25-.11c-4.6-.13-8.52-.32-11.27-.57-1.39-.12-2.47-.26-3.19-.39l-.39-.09a15.57,15.57,0,0,1,1.76-.29c1.62-.2,4-.39,6.84-.52a.37.37,0,0,0,.23-.1.35.35,0,0,0,.12-.21.33.33,0,0,0,0-.24.42.42,0,0,0-.18-.17,1.69,1.69,0,0,1-.29-.17,1.18,1.18,0,0,1,.29-.16,6.82,6.82,0,0,1,1.46-.44,41,41,0,0,1,5.42-.69.43.43,0,0,0,.23-.09.38.38,0,0,0,.12-.21.36.36,0,0,0,0-.23.39.39,0,0,0-.14-.17,2.78,2.78,0,0,1,.56-.17,11.73,11.73,0,0,1,2.21-.21h.41l-.31-.37h0l.31.37c.18,0,.35,0,.52,0h0a12.86,12.86,0,0,1,1.52.18,2.36,2.36,0,0,1,.65.21s0,0,.06,0a.42.42,0,0,0,.08.21.43.43,0,0,0,.32.17h1.16a90.19,90.19,0,0,1,10.77.56,21.21,21.21,0,0,1,3.21.61,3.19,3.19,0,0,1,.79.32s.08,0,.09.07a.22.22,0,0,1-.09.07.38.38,0,0,0-.15.18.4.4,0,0,0,0,.24.46.46,0,0,0,.13.2.49.49,0,0,0,.22.08c3.16.1,5.87.27,7.94.44l-.23-.4-.23-.39c-1.86-.16-4.16-.28-6.78-.38v0a.89.89,0,0,0-.48-.71,4.06,4.06,0,0,0-1-.41,22.37,22.37,0,0,0-3.34-.64,91.55,91.55,0,0,0-10.86-.58h-.87a.31.31,0,0,0-.07-.09,1.39,1.39,0,0,0-.31-.23,3,3,0,0,0-.83-.27,10.89,10.89,0,0,0-2.35-.23L76.9,46.83ZM103,59.44h0c2,.2,3.28.46,3.28.74,0,.56-5,1-11.69,1.14a1.75,1.75,0,0,1-.82.24,1.73,1.73,0,0,0,.8-.24c6.7-.12,11.7-.58,11.7-1.14C106.28,59.9,105,59.64,103,59.44Zm-26.71.73c0,.15.39.3,1.06.42h-.12c-.6-.13-1-.26-1-.4Zm-13.7-2a0,0,0,0,1,0,0c.07.63,6.5,1.17,15.68,1.4l-.18,0C69,59.36,62.58,58.82,62.58,58.2Zm8.87-1.71v0c0,.18.19.34.55.51h-.06C71.63,56.82,71.45,56.66,71.45,56.49Zm7.21-2h0c0,.12.12.22.33.31h0C78.78,54.7,78.66,54.58,78.66,54.48Zm2.73-1.08.25.29h0Zm.43-.08h0l.31.37h0Zm.5,0h0l.31.37c1.62.07,2.86.36,2.94.74-.08-.37-1.32-.67-2.94-.73h0ZM39.39,46.83,70,72.54h0L39.38,46.83ZM2.3,73l3.17-.13h0L2.3,73ZM2.47,72c.63.1,1.33.2,2.11.3C3.8,72.24,3.1,72.14,2.47,72ZM2.3,75.45c3.7.17,8.24.32,13.43.44-.27.14-.41.27-.44.4,0-.14.17-.27.41-.4-5.17-.11-9.7-.25-13.4-.43Zm31,28.56v.39h0v7H2.3V93.13l31,11.29v-.82L2.3,92.31V75.84c3.51.16,7.76.29,12.6.4v.1a.71.71,0,0,0,.06.28.84.84,0,0,0,.18.23,1.82,1.82,0,0,0,.47.31,7.16,7.16,0,0,0,1.49.47c.4.09.84.18,1.33.26-1.36.11-2.54.21-3.52.35a16.25,16.25,0,0,0-2.19.41,2.67,2.67,0,0,0-.66.26.91.91,0,0,0-.24.2.54.54,0,0,0-.14.36.66.66,0,0,0,.07.25.65.65,0,0,0,.16.21,1.58,1.58,0,0,0,.38.21,5.34,5.34,0,0,0,1.17.32,37.94,37.94,0,0,0,4.1.51c3.44.29,8.18.45,13.42.45h2.33V81h0v23h0ZM12.14,79.57C12.83,80.39,21,81,31,81h0C21,81,12.82,80.4,12.14,79.57Zm185.69,15Zm11.39,4.32h0l-.33.38.33-.39Zm59.84,12.52H235.44l33.62-17.08Zm0-55.44c-.44.12-1,.23-1.71.35h-.1c.75-.12,1.35-.24,1.81-.36Zm0-1.53-.13,0a32.17,32.17,0,0,0-3.64-.58c-2.93-.34-7.05-.64-12.06-.88a.66.66,0,0,0,0-.14.74.74,0,0,0-.08-.29.71.71,0,0,0-.19-.23,2.34,2.34,0,0,0-.49-.27,7.89,7.89,0,0,0-1.57-.41c-.5-.1-1.1-.2-1.77-.28l-.29.35h0l-.27.31c.81.11,1.54.22,2.15.34a7.72,7.72,0,0,1,1.43.38l.17.07-.27.13a.35.35,0,0,0-.2.16.42.42,0,0,0-.05.25.36.36,0,0,0,.13.22.35.35,0,0,0,.24.1c5.45.26,9.9.56,13,.93a30.81,30.81,0,0,1,3.55.56l.28.09v.34a14.78,14.78,0,0,1-1.87.39.38.38,0,0,0-.24.13.44.44,0,0,0-.09.27.42.42,0,0,0,.12.25.4.4,0,0,0,.26.1l1.82.07v4.92c-7.48.31-16.17.53-25.66.66l-.13,0a.36.36,0,0,0-.12.08.26.26,0,0,0-.07.11.35.35,0,0,0,0,.14.34.34,0,0,0,.09.27.38.38,0,0,0,.25.13,18.07,18.07,0,0,1,2.51.44l.35.1-.25.08a18.13,18.13,0,0,1-2.2.41.38.38,0,0,0-.25.13.44.44,0,0,0-.09.27.36.36,0,0,0,.11.25.36.36,0,0,0,.26.11c7,.14,12.94.37,17.1.63,2.09.13,3.72.27,4.83.42a1.6,1.6,0,0,0,.23,0h0l-.23.19h0l-.51.44h0l.53-.45-.44.06c-1.4.16-3.46.33-6,.47-5.18.29-12.47.5-21,.62a.44.44,0,0,0-.24.09.39.39,0,0,0-.08.47.32.32,0,0,0,.19.17,3.57,3.57,0,0,1,.85.48c.18.15.2.24.2.26s0,.13-.26.32a5.14,5.14,0,0,1-1.11.53,26.94,26.94,0,0,1-4.41,1l-.64.1h0l-.55.08h0l-.55.08,0,0a130,130,0,0,1-13.32.91.28.28,0,0,0-.2,0A.29.29,0,0,0,218,72a.39.39,0,0,0,0,.21.34.34,0,0,0,.09.2c.09.11.11.15.11.18s0,.16-.28.34a4.8,4.8,0,0,1-1.14.55.39.39,0,0,0-.2.16.35.35,0,0,0,0,.25.38.38,0,0,0,.11.23.37.37,0,0,0,.24.1,31.94,31.94,0,0,1,4.46.64,6.23,6.23,0,0,1,1.19.42.6.6,0,0,1,.23.16l-.06.06a2,2,0,0,1-.58.29,12.88,12.88,0,0,1-2.46.55,57.72,57.72,0,0,1-8.25.52c-.62,0-1.22,0-1.83,0v0a2.44,2.44,0,0,1-.38,0h.38V73.41l-.38.66h0l-.38.65v2.1h0v.38l.38,0h0a2.48,2.48,0,0,1-.38,0v.38l.38,0h0a2.48,2.48,0,0,1-.38,0V94.06h0v4.09h0v.59l.38-.46.38-.45v-.6h0v-1.6c.28.22.53.44.79.66l.49-.58-1.28-1h0v-17h0c.6,0,1.22,0,1.84,0a58.21,58.21,0,0,0,8.37-.53,14.72,14.72,0,0,0,2.59-.6,2.79,2.79,0,0,0,.77-.39,1,1,0,0,0,.28-.29.89.89,0,0,0,.12-.38.84.84,0,0,0-.22-.52,1.55,1.55,0,0,0-.44-.32,5.84,5.84,0,0,0-1.37-.47,25,25,0,0,0-3.21-.54l0,0a1.2,1.2,0,0,0,.6-.94v-.06c4.55-.12,8.68-.41,12-.81v0l.54-.06h0l-.53.06-20.12,24,.28.24h0l.29.25L232.1,71.6h0l1.47-.21a25.85,25.85,0,0,0,4.54-1.06,5.21,5.21,0,0,0,1.3-.63,1.23,1.23,0,0,0,.57-.93.93.93,0,0,0-.09-.4,1.08,1.08,0,0,0-.24-.32c7.92-.12,14.74-.34,19.66-.61,2.18-.12,4-.26,5.36-.4l.52-.43h0l-.51.44h0l-44.8,37.59c.17.2.34.39.49.58l45.69-38.33-.65.09-.71.07.69-.07.66-.09h0a9.52,9.52,0,0,0,1-.19,2.91,2.91,0,0,0,.5-.16.72.72,0,0,0,.2-.14.49.49,0,0,0,.15-.34.45.45,0,0,0-.12-.31.49.49,0,0,0-.18-.14l-.31.26h0l-.61.52h0l.62-.52a4.34,4.34,0,0,0-.93-.22h0c-3-.5-11.36-.93-22.54-1.15,2-.28,3-.57,3-.87s-.68-.47-1.94-.69c1.27.22,2,.45,2,.69s-1.08.59-3,.87c11.18.22,19.57.64,22.54,1.15h0a4.2,4.2,0,0,1,.93.22l.32-.28a1.56,1.56,0,0,0-.41-.15c-.12,0-.28-.08-.46-.11h0l-.88-.15c-1.14-.15-2.8-.3-4.89-.44-3.56-.23-8.4-.43-14.12-.56a.71.71,0,0,0,.23-.19.48.48,0,0,0,.12-.16.69.69,0,0,0,0-.2.39.39,0,0,0,0-.21.43.43,0,0,0-.12-.17,1.1,1.1,0,0,0-.28-.2l0,0c8.18-.13,15.7-.34,22.28-.6v1l-2.3,1.93c.17,0,.32.08.46.11a2.86,2.86,0,0,1,.41.15l1.43-1.2V93.46L233.74,111.4H225a73.16,73.16,0,0,0-4.62-6.19l-.58.49q2.28,2.74,4.27,5.7H209.6v-13h0v-.59l-.38.45h0l-.38.46v.59h0V111.4H198.21V93.91h0V92.4h0V88.08l-.38-.2h0l.38.19V75.73h0v-.38h0V59.92h0v-1.1h0V57.71l-.38,1h0l.38-1V56.35h.88l.14-.38h0l-.14.38h.42l.13-.38h0l-.13.38h9.33V74.72l.38-.65h0l.38-.66v-.76l-.38.65h0l.38-.65V55.59h-9.82l-.14.38h0l.14-.38H181.73l-.06.38h0l-.06.38h15.84V62l.38-1h0L197.45,62V75.71h.38v0l-.38,0v18l.38-.65h0l-.38.65v.76l.38-.65h0l-.38.65v.76h0V111.4H164V79.53h-.38V111.4h0V79.53h-.38V111.4H103.93a71.5,71.5,0,0,1,4.6-6.06h0l.24-.29h0l.24-.28-.57-.49h0l.58.49a70.23,70.23,0,0,1,8.46-8.35l-.49-.58a73.28,73.28,0,0,0-8.55,8.44L91.06,89.69v1l16.88,14.17h0A71.51,71.51,0,0,0,103,111.4H95.33l-4.25-2.46v.44h0v.44l2.75,1.59H91.06V90.68h0V90.2l-.38-.34v.49h0v21h0v-2.24l-.38-.22v2.46H79.67V81.12h0V77.63H90.3V89.05l.38.32h0v.49l.38.32v-.5h0V76.87H78.53a2.2,2.2,0,0,1-.53.32l-.11,0h0a10.63,10.63,0,0,1-1.22.36l0,0h2.22v1.86l.38.32h0v.49h0v.48l.38.34-.38-.32v30.6h0V103l-.38-.21v8.59H34.07v-30h0V81h0v-.38h0v-3h2l-.65-.38h-1.7v3.4h0v-3.4h1.72l-.65-.38H33.31v3.78H31c-5.22,0-9.93-.18-13.34-.46a31.68,31.68,0,0,1-4-.5,7.77,7.77,0,0,1-1-.24l.25-.08A16,16,0,0,1,15,79c1.81-.24,4.4-.44,7.49-.56a.38.38,0,0,0,.37-.37.39.39,0,0,0-.09-.26.36.36,0,0,0-.25-.13,43.8,43.8,0,0,1-5.24-.78A7,7,0,0,1,16,76.47a1,1,0,0,1-.23-.13,1.18,1.18,0,0,1,.19-.11.4.4,0,0,0,.16-.18.36.36,0,0,0,0-.25.32.32,0,0,0-.13-.21.38.38,0,0,0-.23-.08c-5.2-.11-9.75-.26-13.45-.44V73.73c2.82-.13,6.13-.24,9.85-.35a.39.39,0,0,0,.27-.11.45.45,0,0,0,.1-.27.35.35,0,0,0-.1-.26.33.33,0,0,0-.25-.12c-4-.24-7.25-.56-9.52-.93l-.35-.06V70l1.25-.19c2.82-.4,6.85-.73,11.67-1a.42.42,0,0,0,.25-.12.36.36,0,0,0,.11-.25.38.38,0,0,0-.09-.25.41.41,0,0,0-.24-.13,28.33,28.33,0,0,1-3.31-.46,4,4,0,0,1-.68-.18,5.89,5.89,0,0,1,.94-.24,39.18,39.18,0,0,1,4-.5l.16,0-.58-.34c-3.21.26-5.17.64-5.17,1.07s1.71.74,4.54,1c-2.83-.27-4.54-.63-4.54-1s2-.81,5.16-1.08l.58.33c.21,0,.42,0,.65-.06l-.58-.33c-.23,0-.44,0-.65.06L15.22,66c-1.3.13-2.38.28-3.19.43a6,6,0,0,0-1.17.32,1.76,1.76,0,0,0-.38.21.65.65,0,0,0-.17.2.58.58,0,0,0-.06.26.46.46,0,0,0,.06.23.56.56,0,0,0,.14.2,1.15,1.15,0,0,0,.33.21c.22.09.45.16.67.23-3.21.21-5.94.47-8,.76-.38.05-.75.12-1.13.18V58.57L15.2,66h0l.56.32c.21,0,.43,0,.64-.06l0,0h0l.55.32c.22,0,.43,0,.64,0l.05,0c3.23-.24,7.34-.36,11.83-.36,5.23,0,9.93.18,13.34.45a38.55,38.55,0,0,1,4,.51,5.89,5.89,0,0,1,.94.24c-.13,0-.3.09-.51.15a25,25,0,0,1-2.84.44.4.4,0,0,0-.24.14.35.35,0,0,0-.09.26.33.33,0,0,0,.11.25.42.42,0,0,0,.25.12c5.21.21,9.61.56,12.69,1a25.84,25.84,0,0,1,3.55.67,4,4,0,0,1,.87.34l.09.06a2.21,2.21,0,0,1-.34.18,8.81,8.81,0,0,1-1.69.47,60.23,60.23,0,0,1-6.42.84.43.43,0,0,0-.26.13.37.37,0,0,0-.09.27.36.36,0,0,0,.38.36c6.16,0,11.92.12,17,.25l-.45-.4c-5-.11-10.6-.18-16.59-.23h.15c5.93,0,11.47.12,16.44.22l-.46-.39c-3.23-.08-6.7-.12-10.34-.17.27,0,.53-.09.77-.15a10.36,10.36,0,0,0,1.83-.52,2.68,2.68,0,0,0,.57-.32.82.82,0,0,0,.2-.25.85.85,0,0,0,.09-.31.91.91,0,0,0-.52-.72,4.42,4.42,0,0,0-1-.41A28.26,28.26,0,0,0,57.31,69c-2.41-.32-5.59-.59-9.32-.8l.37-.14a1.21,1.21,0,0,0,.3-.2.43.43,0,0,0,.13-.19.54.54,0,0,0,.05-.22.71.71,0,0,0-.06-.25.68.68,0,0,0-.17-.21,1.55,1.55,0,0,0-.38-.21,6,6,0,0,0-1.17-.32A37.31,37.31,0,0,0,43,66c-3.44-.29-8.17-.46-13.41-.46-5,0-9.6.17-13,.43l0,0h0L2.3,57.72V46.83H38.79l30.64,25.7h0l.45.39h0l.44.38c.23,0,.43,0,.63,0l-.29-.24.29.24c.21,0,.41,0,.6,0l0,0c3.94.06,7.51.18,10.55.3,3.61.15,6.49.32,8.47.52.78.07,1.4.15,1.88.23-.74.12-1.8.23-3.17.33-2.8.21-6.86.41-11.84.58a.36.36,0,0,0-.24.09.35.35,0,0,0-.12.23.31.31,0,0,0,.05.25.34.34,0,0,0,.21.16,1.88,1.88,0,0,1,.59.28h0a1.78,1.78,0,0,1-.3.17,7.15,7.15,0,0,1-1.11.35H75.19l.27.22h0l-.27-.23H35.52l.65.38H74.54l.42-.08h0l.49-.07h0l-.47.09v0l-.43.08H36.17l.66.38H74.57l.78-.14-.29-.23h0l.27.23.26,0-.26,0h0l-.77.14h.92l.23.18.47-.09-.08-.07h0l.07.06s0,0,0,0l.25-.06h.13v0h.06a10.63,10.63,0,0,0,1.22-.36H76.58a7.43,7.43,0,0,0,1.19-.37h0a7.13,7.13,0,0,1-1.19.37h1.31l.1,0a1.64,1.64,0,0,0,.54-.32h-.67l0,0h.66a.63.63,0,0,0,.18-.24.59.59,0,0,0,.07-.29.6.6,0,0,0-.07-.3c4.45-.16,8.07-.34,10.66-.54,1.4-.1,2.51-.23,3.26-.35a4.85,4.85,0,0,0,.9-.2,1,1,0,0,0,.3-.13.77.77,0,0,0,.18-.18.62.62,0,0,0,.07-.23.55.55,0,0,0-.06-.22A.43.43,0,0,0,93.9,74a.89.89,0,0,0-.25-.14A3.66,3.66,0,0,0,93,73.7a23.21,23.21,0,0,0-2.32-.29c-2-.18-4.89-.36-8.49-.52-3.29-.13-7.19-.26-11.55-.36l.47.39c13.63.34,22.62.87,22.62,1.48h0c-.21-.6-9.13-1.12-22.59-1.44l0,0-.61,0h0l-.44-.38h0l.44.38c.21,0,.42,0,.62,0l-.47-.4h0L40,46.83h35.9l5.46,6.51h0a11.63,11.63,0,0,0-1.75.22,3,3,0,0,0-.83.25,1.78,1.78,0,0,0-.31.23.76.76,0,0,0-.12.19.59.59,0,0,0,0,.22,39.51,39.51,0,0,0-4.84.66,8.3,8.3,0,0,0-1.61.49,1.91,1.91,0,0,0-.51.32.63.63,0,0,0-.18.24.59.59,0,0,0-.07.29.57.57,0,0,0,0,.18c-2.49.14-4.54.29-6,.49a15.56,15.56,0,0,0-1.93.33,3.6,3.6,0,0,0-.58.2,1,1,0,0,0-.23.17.48.48,0,0,0-.09.58.43.43,0,0,0,.15.18,1.23,1.23,0,0,0,.32.17,4.89,4.89,0,0,0,.93.24,29.81,29.81,0,0,0,3.27.41c2.3.2,5.41.39,9,.51a.42.42,0,0,0-.07.27.21.21,0,0,0,0,.11c-1.18.06-2.21.13-3,.21a11,11,0,0,0-1.28.2,2.64,2.64,0,0,0-.4.12.55.55,0,0,0-.3.3.71.71,0,0,0,0,.21.48.48,0,0,0,.07.2.36.36,0,0,0,.16.14,1.69,1.69,0,0,0,.27.13,4.53,4.53,0,0,0,.75.15c.61.09,1.47.18,2.52.24,2.12.14,5.06.23,8.27.23,2.18,0,4.21,0,6-.11L117,95.82l.49.57.29-.24-.48-.57h0l.48.57.28-.24h0a72.94,72.94,0,0,1,9.78-6.75l-.38-.65a70.53,70.53,0,0,0-9.88,6.82h0l-27.72-33a3.85,3.85,0,0,0-.48,0l1.9,2.26-1.9-2.26h0l-.31-.37-.48,0h0c-1.67.06-3.58.09-5.63.09-6.44,0-11.66-.34-11.66-.76v0c.09.42,5.27.75,11.66.75,2,0,3.94,0,5.6-.09h.5l.47,0h0l.52,0-.48,0,.3.37,1.19-.06c1-.06,1.92-.16,2.56-.23a5,5,0,0,0,.77-.15l.28-.1.09,0c3.31-.06,6.18-.2,8.27-.41a23.48,23.48,0,0,0,2.5-.35,3.83,3.83,0,0,0,.73-.22,1.2,1.2,0,0,0,.27-.16.52.52,0,0,0,.13-.17.56.56,0,0,0,.06-.21.46.46,0,0,0,0-.21.47.47,0,0,0-.14-.17.83.83,0,0,0-.18-.13c1.66-.09,3.09-.19,4.29-.31L127.46,88.5l.33-.17h0l-.32.17.38.66.33-.18h0l.32-.18h0a72.41,72.41,0,0,1,10.78-5v0l.35-.12-.25-.71h0l.35-.13-13.13-36h18.9l2.71,15.37c-1,.11-1.81.23-2.48.34a10,10,0,0,0-1.51.35,1.6,1.6,0,0,0-.45.23.55.55,0,0,0-.2.2.58.58,0,0,0-.09.28.69.69,0,0,0,0,.24.7.7,0,0,0,.15.19,1.38,1.38,0,0,0,.33.2,6.5,6.5,0,0,0,1,.29,33.92,33.92,0,0,0,3.48.51l.23,0-.07-.39c-3-.32-4.77-.68-4.77-1.06s1.58-.72,4.41-1h0c-2.82.32-4.4.67-4.4,1s1.72.74,4.77,1.06v0h0l.07.38.4,0v0a2.19,2.19,0,0,0,.36,0v0a2.34,2.34,0,0,0-.38,0h0l-.39,0,2.6,14.77h0v0a74.35,74.35,0,0,0-11.58,3h0a3,3,0,0,1-.35.13l.26.71a2.06,2.06,0,0,1,.35-.12h0a70.82,70.82,0,0,1,11.47-3v0a2.2,2.2,0,0,0,.37-.06l-.13-.74h0l.13.74c.13,0,.25-.05.39-.06h0a71.87,71.87,0,0,1,11-1v-.76a74.63,74.63,0,0,0-11.17,1l-2.57-14.57c2.68.26,6.22.48,10.43.68a.24.24,0,0,1-.08.09,1.46,1.46,0,0,0-.44,1,1.33,1.33,0,0,0,.15.55,1.41,1.41,0,0,0,.34.46,4.53,4.53,0,0,0,1.17.76,14.08,14.08,0,0,0,2.17.79v9.32h.38V69.56h0v-.4l-.38-.1c-2.21-.66-3.45-1.39-3.45-2.17a1,1,0,0,1,.25-.58,1,1,0,0,0-.25.58c0,.78,1.24,1.51,3.45,2.17h0l.38.1v-.39c-.14,0-.26-.08-.38-.11h0a14.35,14.35,0,0,1-1.83-.69,3.46,3.46,0,0,1-1-.62.72.72,0,0,1-.25-.46.65.65,0,0,1,.22-.42,3.86,3.86,0,0,1,.89-.6.33.33,0,0,0,.17-.18.29.29,0,0,0,0-.24.37.37,0,0,0-.12-.22.43.43,0,0,0-.23-.09c-4.84-.21-8.85-.47-11.77-.76l-.39,0,.07.4h0l-.07-.38-.37,0v0h0a34.28,34.28,0,0,1-3.41-.5c-.22,0-.44-.11-.65-.18a7.8,7.8,0,0,1,1.37-.32c.65-.12,1.49-.23,2.48-.34l-.06-.36h0l.06.36.36,0h0l.38,0-.06-.37c2.64-.27,6.22-.52,10.5-.72-4.28.2-7.85.45-10.49.72l.06.38c.66-.09,1.39-.15,2.16-.21,3.16-.26,7.22-.49,12-.67v-.38h0l.38,0V61.2l-.38-.05v.11h0c-4.77.18-8.85.41-12,.68-.81.06-1.56.14-2.24.2h0l-2.69-15.3H164v8.76h-.74v1.68l.38-.05V56h0v2l.38,0v-1.6h.36V46.83h0v9.52h16.42l.07-.38h0l-.07.38h.76l.06-.38h0l.07-.38h-5.43l.05,0h-1.11a3.4,3.4,0,0,0,1,.38h0a3.4,3.4,0,0,1-1-.38h0a.34.34,0,0,1-.09-.12l.12.11h1.06a3.37,3.37,0,0,1-.68-.22l.09,0a7,7,0,0,1,1.36-.37c1-.2,2.37-.38,4.09-.56l.06-.37h0l.38,0h0l-.38,0-.06.38.38-.05h0c.13,0,.26,0,.39,0L182,54h0l-.06.38.47,0c4.3-.39,10.28-.71,17.36-.93h.4l.41,0,.14-.38h0l.14-.38h0L203,46.83h21.54l-2,3.48h0c-5.26.08-10,.29-13.59.58-2.33.18-4.23.43-5.56.67a9.18,9.18,0,0,0-1.56.41,1.83,1.83,0,0,0-.49.28.57.57,0,0,0-.23.3h-.14l-.13.37h0l-.13.38h.84a.37.37,0,0,0,.2-.07.34.34,0,0,0,.13-.16.53.53,0,0,0,0-.28l.23-.1a8,8,0,0,1,1.44-.38,52.93,52.93,0,0,1,5.48-.67c3.52-.29,8-.49,13.11-.58h.88c1.37,0,2.77,0,4.18,0,7.1,0,13.53.24,18.17.61.85.07,1.64.15,2.38.23l.45,0h0c.15,0,.31,0,.46.06l.29-.35.28-.34h0l3.74-4.47h16.16Zm-16.54-1.3-.24.1h0Zm-8.59,9.65-.53-.08q4.51-.06,8.76-.15-4.24.09-8.74.15Zm20.35,3.92c-4,.4-11.57.72-21,.9C252.71,67.42,260.22,67.09,264.28,66.7Zm-26.15,3.23a25.93,25.93,0,0,1-5,1.13A26.91,26.91,0,0,0,238.13,69.93Zm-19.76,2.29h0a.67.67,0,0,1,.18.4.56.56,0,0,1-.12.33.6.6,0,0,0,.1-.3A.66.66,0,0,0,218.37,72.22Zm-1.46,1.66.07,0c3.69.3,6.21.89,6.21,1.59a.34.34,0,0,1-.07.19.3.3,0,0,0,0-.16C223.17,74.8,220.63,74.19,216.91,73.88Zm-7.68,21.45h0ZM8.29,72.72c1.19.1,2.48.19,3.85.28h0C10.76,72.91,9.48,72.82,8.29,72.72Zm5.57-4.18,1.32-.06h0Zm2-2.58h0Zm1.25.29c3.3-.26,7.65-.39,12.4-.39,10.45,0,18.92.7,18.92,1.58h0c0-.87-8.49-1.58-18.91-1.58-4.73,0-9.06.15-12.38.39Zm45,4.57h0c0-1.06-7.21-2-17.62-2.41l.09,0C55,68.85,62.14,69.76,62.14,70.82Zm16.23,5.36a1.81,1.81,0,0,0-.85-.47h.06A1.5,1.5,0,0,1,78.37,76.18ZM75.84,77.4l.46-.1h0l.32.28-.33-.28-.45.1h0Zm.08-.39h0Zm-.28.23h0Zm73.82-12.48c2.92.29,6.9.53,11.68.75h0c-4.78-.21-8.74-.46-11.68-.74l-.38,0h0l.4,0Zm52-11.85h0l0,0Zm-.07-.12v0h0Z"/><polygon class="cls-1" points="35.52 76.87 34.76 76.87 35.41 77.25 36.17 77.25 35.52 76.87"/><polygon class="cls-1" points="79.29 80.31 79.29 80.31 79.29 79.81 78.91 79.49 78.91 79.99 78.91 79.99 78.91 80.48 79.29 80.8 79.29 80.31"/><polygon class="cls-1" points="79.29 102.58 79.29 102.15 79.29 102.14 79.29 80.8 78.91 80.48 78.91 101.92 78.91 102.36 78.91 102.81 79.29 103.02 79.29 102.58"/><polygon class="cls-1" points="35.41 77.25 36.07 77.63 36.83 77.63 36.17 77.25 35.41 77.25"/><polygon class="cls-1" points="90.68 108.72 90.68 90.36 90.3 90.04 90.3 108.5 90.3 108.94 90.68 109.16 90.68 108.72"/><polygon class="cls-1" points="90.3 89.54 90.3 89.56 90.3 90.04 90.68 90.36 90.68 89.88 90.68 89.86 90.68 89.39 90.3 89.07 90.3 89.54"/><rect class="cls-2" x="163.26" y="78.77" width="0.38" height="0.76"/><path class="cls-1" d="M163.64,60.82V58l-.38,0v2.33c-1.16-.1-2.18-.24-3-.36a18.26,18.26,0,0,1-2.74-.57,3.13,3.13,0,0,1-.6-.24l.11,0a5.68,5.68,0,0,1,1.13-.35,39.64,39.64,0,0,1,4.6-.72c.18,0,.36-.05.55-.06h0l.38,0v-.76l-.38,0v.37h0v-.37l-.64.08a43.43,43.43,0,0,0-4.69.73,6.37,6.37,0,0,0-1.28.41,1.91,1.91,0,0,0-.41.26.65.65,0,0,0-.16.21.59.59,0,0,0-.07.26.72.72,0,0,0,.13.37.76.76,0,0,0,.3.26,3.74,3.74,0,0,0,.8.33,21.49,21.49,0,0,0,2.85.58c.9.14,2,.27,3.16.4v-.38c-4.38-.49-6.84-1-6.84-1.57,0-.11.09-.22.26-.32-.16.1-.25.2-.25.3,0,.55,2.47,1.08,6.86,1.55v.4l.38.05v-.38Z"/><path class="cls-1" d="M163.64,62v-.37l-.38,0v7l.38.13V62Z"/><path class="cls-1" d="M163.64,79.53H164V69.66l-.38-.1v10Z"/><path class="cls-1" d="M163.64,69.56l.38.1v-.39a2.38,2.38,0,0,1-.38-.11Z"/><path class="cls-1" d="M163.64,60.43v.75l.3,0h-.1l-.2,0v0h0v.37l.38,0V60.48h0V58a2.43,2.43,0,0,0-.38,0v2.42Z"/><path class="cls-1" d="M163.64,62h0v6.77h0v.39a2.38,2.38,0,0,0,.38.11v-.4h0V61.61h-.38Z"/><path class="cls-1" d="M89.07,61.93l.3.36h.48l-.31-.37Z"/></svg>