<svg width="22" height="18" viewBox="0 0 22 18" fill="none" xmlns="http://www.w3.org/2000/svg">
<path d="M0 8.19305C0.186783 7.81986 0.5249 7.62323 0.895739 7.48144C2.36819 6.92054 3.84336 6.36454 5.32126 5.81344C10.3767 3.91403 15.4325 2.01552 20.4888 0.117891C20.6082 0.0699788 20.7325 0.0349939 20.8597 0.0135577C21.5414 -0.0800751 22.0185 0.317196 21.9994 1.02212C21.9724 1.48351 21.9026 1.94152 21.7908 2.39049C20.752 7.18984 19.7067 11.9879 18.6551 16.7845C18.602 17.0312 18.5163 17.2699 18.4001 17.4948C18.3133 17.692 18.1525 17.8489 17.951 17.9331C17.7495 18.0173 17.5227 18.0222 17.3176 17.9469C17.0849 17.8807 16.8648 17.7777 16.6659 17.6419C15.0871 16.521 13.5192 15.3881 11.9473 14.2605L11.7428 14.116C11.68 14.1708 11.6214 14.2177 11.5655 14.2698C10.7629 15.0216 9.96037 15.7742 9.1578 16.5277C9.04411 16.6421 8.90754 16.7321 8.75668 16.7922C8.60581 16.8523 8.44391 16.8811 8.28115 16.8768C8.3016 16.5718 8.32069 16.2749 8.3425 15.9766C8.43794 14.6591 8.53201 13.3402 8.63563 12.024C8.64949 11.9171 8.69997 11.8181 8.77878 11.7431C11.8182 9.05358 14.8649 6.36587 17.9189 3.67995C17.9407 3.66122 17.9693 3.64785 17.9829 3.62377C18.0402 3.52077 18.0934 3.41377 18.1479 3.30809C18.0223 3.2643 17.8899 3.24213 17.7566 3.24255C17.6038 3.27948 17.4595 3.34437 17.3312 3.43383C13.5383 5.76216 9.74451 8.08827 5.94978 10.4121C5.85749 10.4672 5.74739 10.4858 5.64165 10.4643C4.02742 9.98144 2.41727 9.48652 0.805756 8.99294C0.478546 8.89396 0.182692 8.7495 0 8.44452V8.19305Z" fill="#F9F0EC"/>
</svg>
