<svg width="52" height="30" viewBox="0 0 52 30" fill="none" xmlns="http://www.w3.org/2000/svg">
<path d="M51.05 24.0645C50.7971 25.0448 50.3283 25.8773 49.4389 26.42C48.9878 26.7243 48.4633 26.9022 47.9202 26.9352C47.377 26.9682 46.8349 26.8551 46.3502 26.6076C45.2137 26.0393 44.1169 25.3715 43.0059 24.7407C41.2328 23.7292 39.4711 22.7006 37.6924 21.7004C37.5509 21.641 37.4318 21.5383 37.3522 21.4072C37.2726 21.276 37.2365 21.1231 37.2491 20.9701C37.2624 16.9694 37.2624 12.9667 37.2491 8.96218C37.2353 8.80978 37.2695 8.65688 37.3469 8.5249C37.4244 8.39292 37.5412 8.28849 37.681 8.22624C40.3463 6.70323 43.04 5.22568 45.637 3.61173C47.9272 2.19101 50.6181 3.45546 50.9875 5.78544C50.9991 5.83096 51.0163 5.87486 51.0386 5.91615L51.05 24.0645Z" fill="#564B40"/>
<path d="M51.05 24.0645C50.7971 25.0448 50.3283 25.8773 49.4389 26.42C48.9878 26.7243 48.4633 26.9022 47.9202 26.9352C47.377 26.9682 46.8349 26.8551 46.3502 26.6076C45.2137 26.0393 44.1169 25.3715 43.0059 24.7407C41.2328 23.7292 39.4711 22.7006 37.6924 21.7004C37.5509 21.641 37.4318 21.5383 37.3522 21.4072C37.2726 21.276 37.2365 21.1231 37.2491 20.9701C37.2624 16.9694 37.2624 12.9667 37.2491 8.96218C37.2353 8.80978 37.2695 8.65688 37.3469 8.5249C37.4244 8.39292 37.5412 8.28849 37.681 8.22624C40.3463 6.70323 43.04 5.22568 45.637 3.61173C47.9272 2.19101 50.6181 3.45546 50.9875 5.78544C50.9991 5.83096 51.0163 5.87486 51.0386 5.91615L51.05 24.0645Z" fill="black" fill-opacity="0.2"/>
<path d="M17.2051 29.9801C13.4004 29.9801 9.5957 29.9801 5.791 29.9801C2.94955 29.9801 0.764478 28.2752 0.147884 25.6441C0.0466679 25.1773 -0.00288168 24.7009 0.000129394 24.2233C0.000129394 18.0744 0.000129394 11.9265 0.000129394 5.7795C0.000129394 2.46069 2.37274 0.0284145 5.68302 0.0170487C13.3739 -0.00568289 21.0657 -0.00568289 28.7584 0.0170487C32.0602 0.0170487 34.4271 2.37261 34.4413 5.67437C34.4773 11.8896 34.4773 18.1038 34.4413 24.3171C34.4243 27.6388 31.9977 29.9773 28.6533 30C24.8457 29.9915 21.0268 29.9801 17.2051 29.9801Z" fill="#564B40"/>
<path d="M17.2051 29.9801C13.4004 29.9801 9.5957 29.9801 5.791 29.9801C2.94955 29.9801 0.764478 28.2752 0.147884 25.6441C0.0466679 25.1773 -0.00288168 24.7009 0.000129394 24.2233C0.000129394 18.0744 0.000129394 11.9265 0.000129394 5.7795C0.000129394 2.46069 2.37274 0.0284145 5.68302 0.0170487C13.3739 -0.00568289 21.0657 -0.00568289 28.7584 0.0170487C32.0602 0.0170487 34.4271 2.37261 34.4413 5.67437C34.4773 11.8896 34.4773 18.1038 34.4413 24.3171C34.4243 27.6388 31.9977 29.9773 28.6533 30C24.8457 29.9915 21.0268 29.9801 17.2051 29.9801Z" fill="black" fill-opacity="0.2"/>
</svg>
