<svg width="27" height="16" viewBox="0 0 27 16" fill="none" xmlns="http://www.w3.org/2000/svg">
<path d="M0 1.10898C0.246514 0.806992 0.578691 0.731495 0.940449 0.730855C2.16131 0.726376 3.38217 0.7123 4.60364 0.717419C5.1583 0.717419 5.51513 1.01237 5.76041 1.54085C6.44325 3.01752 7.14766 4.48247 7.87364 5.93568C8.18487 6.55821 8.58052 7.13404 9.12963 7.56911C9.24655 7.66395 9.37662 7.73988 9.51543 7.79432C9.84514 7.9178 10.1003 7.83271 10.2217 7.50129C10.3628 7.12166 10.4642 6.72742 10.5243 6.32532C10.6941 5.12416 10.6879 3.90324 10.5058 2.70402C10.3825 1.86907 9.99674 1.33355 9.16476 1.19088C8.91825 1.14801 8.89544 1.05716 9.05753 0.84602C9.40265 0.398155 9.87472 0.206213 10.4072 0.142233C11.8604 -0.0285956 13.3136 -0.0785005 14.7619 0.179342C15.4817 0.307303 15.7479 0.584339 15.7997 1.39497C15.8613 2.34701 15.7904 3.30736 15.7886 4.26451C15.7886 5.11161 15.7923 5.95871 15.8163 6.80518C15.8286 7.00594 15.8822 7.20164 15.9735 7.37908C16.2021 7.85126 16.5965 7.93764 16.9478 7.56015C17.3841 7.09053 17.8186 6.60748 18.1804 6.0758C19.1399 4.66822 19.8992 3.13845 20.5124 1.53317C20.7694 0.859456 20.9185 0.773722 21.6106 0.769243C23.0422 0.761565 24.4739 0.738532 25.9061 0.727016C26.0718 0.724164 26.2372 0.740907 26.3991 0.776921C26.9113 0.898484 27.0955 1.16912 26.9538 1.68928C26.8447 2.09684 26.7141 2.52103 26.4941 2.87037C25.7662 4.0297 25.0008 5.16088 24.236 6.29141C23.7972 6.94018 23.3177 7.55951 22.8894 8.21467C22.4481 8.89031 22.4894 9.37592 23.0318 9.95559C23.7775 10.7541 24.5725 11.5033 25.2985 12.3229C25.8075 12.8987 26.2568 13.5315 26.6882 14.1719C26.8503 14.4125 26.9248 14.7381 26.9692 15.0363C27.0339 15.4714 26.6407 15.868 26.1335 15.8847C24.8344 15.9307 23.5347 15.9423 22.2368 15.9966C21.4926 16.0331 20.7634 15.7713 20.1999 15.2653C19.8037 14.9224 19.4505 14.5244 19.0906 14.1399C18.6321 13.6505 18.2075 13.1239 17.7274 12.6594C17.0304 11.9851 16.4985 12.1604 16.0967 13.0631C15.9254 13.447 15.8909 13.9019 15.8145 14.3287C15.78 14.5206 15.8021 14.7292 15.783 14.9282C15.7183 15.5974 15.4675 15.9071 14.8222 15.9192C13.4578 15.9448 12.0872 16.0337 10.7548 15.5654C9.5222 15.1323 8.45665 14.4086 7.43177 13.6063C6.42168 12.8155 5.68953 11.7618 4.94198 10.7272C2.95262 7.96835 1.43717 4.93502 0.104152 1.79549C0.0690238 1.7136 0.0345119 1.6317 0 1.54981V1.10898Z" fill="#C0AA9E"/>
</svg>
