<svg width="24" height="17" viewBox="0 0 24 17" fill="none" xmlns="http://www.w3.org/2000/svg">
<path d="M24 7.0066V10.0109C23.9871 10.0867 23.9685 10.1625 23.9628 10.2383C23.8654 11.5373 23.7781 12.8392 23.6765 14.1368C23.5849 15.2584 22.547 16.3141 21.4419 16.4257C20.4555 16.5287 19.4692 16.6317 18.4815 16.7219C16.2697 16.9236 14.0537 17.008 11.8334 16.9994C8.77158 16.9826 5.71299 16.7969 2.67165 16.4429C1.51783 16.3141 0.447051 15.3313 0.338255 14.1968C0.195102 12.7133 0.0791479 11.2255 0.0218868 9.7362C-0.0492693 7.43279 0.0531355 5.12729 0.328234 2.83923C0.441325 1.73623 1.47489 0.684736 2.57001 0.591747C4.51832 0.418643 6.47379 0.232664 8.43069 0.109631C11.1072 -0.0484618 13.791 -0.03556 16.4659 0.148258C18.1021 0.254123 19.7326 0.43438 21.366 0.577441C22.5026 0.680445 23.5605 1.69332 23.665 2.82779C23.7838 4.11534 23.8626 5.40289 23.9585 6.68042C23.9671 6.79344 23.9871 6.90073 24 7.0066ZM10.0025 4.51448V12.5001L15.9963 8.50874L10.0025 4.51448Z" fill="#F9F0EC"/>
</svg>
